<?xml version="1.0" encoding="UTF-8" standalone="no"?>
<!DOCTYPE svg PUBLIC "-//W3C//DTD SVG 1.1//EN" "http://www.w3.org/Graphics/SVG/1.1/DTD/svg11.dtd">
<svg width="100%" height="100%" viewBox="0 0 1494 1401" version="1.1" xmlns="http://www.w3.org/2000/svg" xmlns:xlink="http://www.w3.org/1999/xlink" xml:space="preserve" xmlns:serif="http://www.serif.com/" style="fill-rule:evenodd;clip-rule:evenodd;stroke-linejoin:round;stroke-miterlimit:2;">
    <g transform="matrix(1,0,0,1,-213.470833,-247.908333)">
        <g transform="matrix(4.166667,0,0,4.166667,0,0)">
            <g id="图层-1" serif:id="图层 1">
                <g transform="matrix(91.139244,298.831573,298.831573,-91.139244,251.220917,23.744506)">
                    <path d="M0.007,-0.369C0.003,-0.383 0.011,-0.398 0.025,-0.402C0.039,-0.407 0.054,-0.399 0.058,-0.385L0.257,0.27C0.27,0.311 0.314,0.335 0.356,0.322L0.71,0.214C0.724,0.21 0.739,0.218 0.743,0.232C0.747,0.246 0.739,0.261 0.725,0.265L0.371,0.373C0.302,0.394 0.228,0.355 0.207,0.285L0.007,-0.369Z" style="fill:url(#_Linear1);fill-rule:nonzero;"/>
                </g>
                <g transform="matrix(92.099945,301.981567,301.981567,-92.099945,96.389878,71.254757)">
                    <path d="M0.154,-0.155L0.681,-0.316C0.714,-0.326 0.749,-0.32 0.777,-0.301L1.038,-0.119L0.831,-0.056L0.936,0.29C0.94,0.304 0.933,0.319 0.919,0.323C0.905,0.328 0.89,0.32 0.886,0.306L0.775,-0.06C0.769,-0.077 0.779,-0.095 0.796,-0.1L0.919,-0.138L0.747,-0.257C0.732,-0.268 0.713,-0.27 0.696,-0.265L0.17,-0.105C0.156,-0.1 0.141,-0.108 0.137,-0.122C0.133,-0.136 0.14,-0.151 0.154,-0.155Z" style="fill:url(#_Linear2);fill-rule:nonzero;"/>
                </g>
                <g transform="matrix(92.764862,304.161713,304.161713,-92.764862,70.158086,78.201074)">
                    <path d="M0.522,-0.044C0.536,-0.064 0.556,-0.077 0.583,-0.086C0.612,-0.094 0.636,-0.094 0.657,-0.086C0.681,-0.077 0.697,-0.057 0.707,-0.026C0.713,-0.006 0.712,0.013 0.705,0.031C0.698,0.05 0.684,0.064 0.663,0.075L0.655,0.048C0.668,0.04 0.677,0.03 0.682,0.018C0.686,0.007 0.686,-0.005 0.682,-0.019C0.675,-0.04 0.664,-0.053 0.648,-0.059C0.633,-0.065 0.614,-0.064 0.592,-0.057C0.57,-0.051 0.555,-0.041 0.545,-0.027C0.534,-0.013 0.532,0.004 0.538,0.024C0.543,0.038 0.549,0.048 0.557,0.055C0.566,0.062 0.577,0.065 0.591,0.064L0.599,0.092C0.58,0.095 0.562,0.091 0.547,0.081C0.531,0.07 0.52,0.054 0.514,0.032C0.505,0.003 0.507,-0.023 0.522,-0.044Z" style="fill:url(#_Linear3);fill-rule:nonzero;"/>
                </g>
                <g transform="matrix(317.993187,-0,-0,-317.993187,-36.613128,262.896475)">
                    <rect x="0.632" y="-0.099" width="0.029" height="0.198" style="fill:url(#_Linear4);"/>
                </g>
                <g transform="matrix(92.764862,304.161713,304.161713,-92.764862,138.679282,57.303104)">
                    <path d="M0.649,0.053L0.731,0.028C0.74,0.023 0.747,0.016 0.751,0.008C0.755,0 0.756,-0.007 0.754,-0.015C0.75,-0.025 0.745,-0.032 0.739,-0.035C0.732,-0.039 0.723,-0.039 0.711,-0.035L0.629,-0.01L0.621,-0.038L0.705,-0.063C0.741,-0.074 0.764,-0.064 0.774,-0.031C0.779,-0.014 0.776,0.002 0.765,0.018L0.783,0.012L0.792,0.04L0.657,0.081L0.649,0.053Z" style="fill:url(#_Linear5);fill-rule:nonzero;"/>
                </g>
                <g transform="matrix(92.764862,304.161713,304.161713,-92.764862,184.435934,43.347999)">
                    <path d="M0.612,-0.021L0.801,-0.079L0.809,-0.053L0.793,-0.048C0.809,-0.043 0.82,-0.031 0.825,-0.013C0.831,0.007 0.829,0.025 0.819,0.04C0.809,0.055 0.793,0.065 0.773,0.071C0.753,0.077 0.735,0.077 0.719,0.071C0.702,0.064 0.69,0.051 0.684,0.032C0.679,0.015 0.683,-0.001 0.695,-0.016L0.62,0.006L0.612,-0.021ZM0.779,-0.034C0.769,-0.037 0.757,-0.036 0.743,-0.032L0.741,-0.031C0.726,-0.027 0.716,-0.02 0.709,-0.01C0.703,-0.001 0.701,0.008 0.705,0.019C0.709,0.032 0.716,0.041 0.728,0.045C0.737,0.048 0.749,0.047 0.764,0.043C0.779,0.038 0.79,0.032 0.796,0.024C0.804,0.015 0.806,0.004 0.802,-0.01C0.798,-0.022 0.79,-0.03 0.779,-0.034Z" style="fill:url(#_Linear6);fill-rule:nonzero;"/>
                </g>
                <g transform="matrix(92.764862,304.161713,304.161713,-92.764862,188.996754,40.537701)">
                    <path d="M0.332,-0.169C0.38,-0.184 0.426,-0.183 0.464,-0.168C0.507,-0.151 0.537,-0.117 0.551,-0.07C0.565,-0.024 0.559,0.021 0.534,0.059C0.51,0.093 0.473,0.119 0.424,0.134C0.316,0.167 0.231,0.129 0.203,0.036C0.174,-0.058 0.224,-0.136 0.332,-0.169ZM0.447,-0.124C0.419,-0.135 0.383,-0.135 0.346,-0.124C0.306,-0.112 0.276,-0.092 0.259,-0.067C0.241,-0.042 0.238,-0.012 0.248,0.022C0.259,0.056 0.278,0.079 0.307,0.09C0.335,0.101 0.37,0.1 0.41,0.088C0.447,0.077 0.477,0.057 0.494,0.032C0.511,0.006 0.515,-0.024 0.505,-0.057C0.495,-0.089 0.475,-0.112 0.447,-0.124Z" style="fill:url(#_Linear7);fill-rule:nonzero;"/>
                </g>
                <g transform="matrix(317.993187,0,0,-317.993187,30.525253,172.375864)">
                    <rect x="0.33" y="-0.125" width="0.05" height="0.249" style="fill:url(#_Linear8);"/>
                </g>
                <g transform="matrix(92.764862,304.161713,304.161713,-92.764862,278.439255,13.259056)">
                    <path d="M0.289,0.023C0.286,-0.013 0.298,-0.044 0.323,-0.066C0.346,-0.087 0.381,-0.094 0.41,-0.085C0.443,-0.074 0.462,-0.048 0.477,-0.024C0.486,-0.008 0.5,0.013 0.508,0.026C0.52,0.044 0.537,0.055 0.554,0.057C0.573,0.059 0.592,0.048 0.602,0.03C0.615,0.006 0.608,-0.027 0.597,-0.049C0.585,-0.074 0.557,-0.099 0.524,-0.1L0.517,-0.1L0.502,-0.146L0.515,-0.147C0.565,-0.151 0.615,-0.12 0.64,-0.07C0.644,-0.062 0.647,-0.054 0.65,-0.045C0.656,-0.024 0.664,0.016 0.643,0.053L0.643,0.053C0.625,0.087 0.587,0.108 0.55,0.104C0.518,0.102 0.488,0.082 0.469,0.052C0.46,0.039 0.446,0.017 0.436,0.001C0.426,-0.015 0.413,-0.034 0.396,-0.039C0.382,-0.044 0.366,-0.04 0.354,-0.03C0.341,-0.019 0.335,-0.001 0.337,0.02C0.339,0.048 0.354,0.076 0.375,0.09C0.39,0.1 0.405,0.1 0.413,0.099L0.421,0.098L0.435,0.144L0.424,0.146C0.412,0.148 0.38,0.151 0.349,0.13C0.324,0.113 0.304,0.086 0.295,0.055C0.292,0.044 0.29,0.034 0.289,0.023Z" style="fill:url(#_Linear9);fill-rule:nonzero;"/>
                </g>
                <g transform="matrix(0,317.993187,317.993187,-0,143.302343,56.710749)">
                    <ellipse cx="0.155" cy="0" rx="0.033" ry="0.033" style="fill:url(#_Linear10);"/>
                </g>
                <g transform="matrix(109.738182,293.081238,293.081238,-109.738182,74.791106,59.770068)">
                    <path d="M-0.018,-0.046C-0.023,-0.059 -0.016,-0.074 -0.003,-0.079L0.103,-0.119C0.116,-0.124 0.131,-0.117 0.136,-0.104L0.186,0.03C0.188,0.035 0.192,0.038 0.196,0.041L0.232,0.059L0.072,0.119C0.058,0.124 0.043,0.117 0.038,0.104L-0.018,-0.046Z" style="fill:url(#_Linear11);fill-rule:nonzero;"/>
                </g>
                <g transform="matrix(92.003067,301.66391,301.66391,-92.003067,262.6597,20.320087)">
                    <path d="M0.75,-0.089C0.744,-0.107 0.755,-0.126 0.773,-0.132L0.927,-0.179C0.945,-0.184 0.964,-0.174 0.969,-0.156L1.036,0.062C1.037,0.066 1.041,0.07 1.045,0.073L1.103,0.107L0.867,0.179C0.849,0.184 0.83,0.174 0.825,0.156L0.75,-0.089Z" style="fill:url(#_Linear12);fill-rule:nonzero;"/>
                </g>
                <g transform="matrix(97.437134,182.783524,182.783524,-97.437134,358.3908,231.203434)">
                    <path d="M0.026,-0.035C0.016,-0.054 0.023,-0.077 0.043,-0.088L0.247,-0.197L0.223,-0.105C0.221,-0.097 0.222,-0.09 0.226,-0.083L0.308,0.071C0.318,0.091 0.311,0.114 0.292,0.124L0.186,0.181C0.167,0.191 0.143,0.184 0.133,0.165L0.026,-0.035Z" style="fill:url(#_Linear13);fill-rule:nonzero;"/>
                </g>
            </g>
        </g>
    </g>
    <defs>
        <linearGradient id="_Linear1" x1="0" y1="0" x2="1" y2="0" gradientUnits="userSpaceOnUse" gradientTransform="matrix(1,0,0,-1,0,-0.012351)"><stop offset="0" style="stop-color:rgb(249,193,100);stop-opacity:1"/><stop offset="0.22" style="stop-color:rgb(240,144,122);stop-opacity:1"/><stop offset="0.45" style="stop-color:rgb(207,115,171);stop-opacity:1"/><stop offset="0.67" style="stop-color:rgb(143,121,182);stop-opacity:1"/><stop offset="1" style="stop-color:rgb(85,181,231);stop-opacity:1"/></linearGradient>
        <linearGradient id="_Linear2" x1="0" y1="0" x2="1" y2="0" gradientUnits="userSpaceOnUse" gradientTransform="matrix(1,0,0,-1,0,0.002012)"><stop offset="0" style="stop-color:rgb(249,193,100);stop-opacity:1"/><stop offset="0.22" style="stop-color:rgb(240,144,122);stop-opacity:1"/><stop offset="0.45" style="stop-color:rgb(207,115,171);stop-opacity:1"/><stop offset="0.67" style="stop-color:rgb(143,121,182);stop-opacity:1"/><stop offset="1" style="stop-color:rgb(85,181,231);stop-opacity:1"/></linearGradient>
        <linearGradient id="_Linear3" x1="0" y1="0" x2="1" y2="0" gradientUnits="userSpaceOnUse" gradientTransform="matrix(1,-0,-0,-1,0,0.000364)"><stop offset="0" style="stop-color:rgb(249,193,100);stop-opacity:1"/><stop offset="0.22" style="stop-color:rgb(240,144,122);stop-opacity:1"/><stop offset="0.45" style="stop-color:rgb(207,115,171);stop-opacity:1"/><stop offset="0.67" style="stop-color:rgb(143,121,182);stop-opacity:1"/><stop offset="1" style="stop-color:rgb(85,181,231);stop-opacity:1"/></linearGradient>
        <linearGradient id="_Linear4" x1="0" y1="0" x2="1" y2="0" gradientUnits="userSpaceOnUse" gradientTransform="matrix(0.29172,-0.956504,-0.956504,-0.29172,0.457603,0.617974)"><stop offset="0" style="stop-color:rgb(249,193,100);stop-opacity:1"/><stop offset="0.22" style="stop-color:rgb(240,144,122);stop-opacity:1"/><stop offset="0.45" style="stop-color:rgb(207,115,171);stop-opacity:1"/><stop offset="0.67" style="stop-color:rgb(143,121,182);stop-opacity:1"/><stop offset="1" style="stop-color:rgb(85,181,231);stop-opacity:1"/></linearGradient>
        <linearGradient id="_Linear5" x1="0" y1="0" x2="1" y2="0" gradientUnits="userSpaceOnUse" gradientTransform="matrix(1,-0,-0,-1,0,0.006813)"><stop offset="0" style="stop-color:rgb(249,193,100);stop-opacity:1"/><stop offset="0.22" style="stop-color:rgb(240,144,122);stop-opacity:1"/><stop offset="0.45" style="stop-color:rgb(207,115,171);stop-opacity:1"/><stop offset="0.67" style="stop-color:rgb(143,121,182);stop-opacity:1"/><stop offset="1" style="stop-color:rgb(85,181,231);stop-opacity:1"/></linearGradient>
        <linearGradient id="_Linear6" x1="0" y1="0" x2="1" y2="0" gradientUnits="userSpaceOnUse" gradientTransform="matrix(1,-0,-0,-1,0,-0.001628)"><stop offset="0" style="stop-color:rgb(249,193,100);stop-opacity:1"/><stop offset="0.22" style="stop-color:rgb(240,144,122);stop-opacity:1"/><stop offset="0.45" style="stop-color:rgb(207,115,171);stop-opacity:1"/><stop offset="0.67" style="stop-color:rgb(143,121,182);stop-opacity:1"/><stop offset="1" style="stop-color:rgb(85,181,231);stop-opacity:1"/></linearGradient>
        <linearGradient id="_Linear7" x1="0" y1="0" x2="1" y2="0" gradientUnits="userSpaceOnUse" gradientTransform="matrix(1,-0,-0,-1,0,-0.017231)"><stop offset="0" style="stop-color:rgb(249,193,100);stop-opacity:1"/><stop offset="0.22" style="stop-color:rgb(240,144,122);stop-opacity:1"/><stop offset="0.45" style="stop-color:rgb(207,115,171);stop-opacity:1"/><stop offset="0.67" style="stop-color:rgb(143,121,182);stop-opacity:1"/><stop offset="1" style="stop-color:rgb(85,181,231);stop-opacity:1"/></linearGradient>
        <linearGradient id="_Linear8" x1="0" y1="0" x2="1" y2="0" gradientUnits="userSpaceOnUse" gradientTransform="matrix(0.29172,-0.956504,-0.956504,-0.29172,0.251183,0.339212)"><stop offset="0" style="stop-color:rgb(249,193,100);stop-opacity:1"/><stop offset="0.22" style="stop-color:rgb(240,144,122);stop-opacity:1"/><stop offset="0.45" style="stop-color:rgb(207,115,171);stop-opacity:1"/><stop offset="0.67" style="stop-color:rgb(143,121,182);stop-opacity:1"/><stop offset="1" style="stop-color:rgb(85,181,231);stop-opacity:1"/></linearGradient>
        <linearGradient id="_Linear9" x1="0" y1="0" x2="1" y2="0" gradientUnits="userSpaceOnUse" gradientTransform="matrix(1,-0,-0,-1,0,-0.000009)"><stop offset="0" style="stop-color:rgb(249,193,100);stop-opacity:1"/><stop offset="0.22" style="stop-color:rgb(240,144,122);stop-opacity:1"/><stop offset="0.45" style="stop-color:rgb(207,115,171);stop-opacity:1"/><stop offset="0.67" style="stop-color:rgb(143,121,182);stop-opacity:1"/><stop offset="1" style="stop-color:rgb(85,181,231);stop-opacity:1"/></linearGradient>
        <linearGradient id="_Linear10" x1="0" y1="0" x2="1" y2="0" gradientUnits="userSpaceOnUse" gradientTransform="matrix(0.956504,0.29172,0.29172,-0.956504,0.006729,-0.045127)"><stop offset="0" style="stop-color:rgb(249,193,100);stop-opacity:1"/><stop offset="0.22" style="stop-color:rgb(240,144,122);stop-opacity:1"/><stop offset="0.45" style="stop-color:rgb(207,115,171);stop-opacity:1"/><stop offset="0.67" style="stop-color:rgb(143,121,182);stop-opacity:1"/><stop offset="1" style="stop-color:rgb(85,181,231);stop-opacity:1"/></linearGradient>
        <linearGradient id="_Linear11" x1="0" y1="0" x2="1" y2="0" gradientUnits="userSpaceOnUse" gradientTransform="matrix(1,0,0,-1,0,0.000002)"><stop offset="0" style="stop-color:rgb(249,193,100);stop-opacity:1"/><stop offset="0.22" style="stop-color:rgb(240,144,122);stop-opacity:1"/><stop offset="0.45" style="stop-color:rgb(207,115,171);stop-opacity:1"/><stop offset="0.67" style="stop-color:rgb(143,121,182);stop-opacity:1"/><stop offset="1" style="stop-color:rgb(85,181,231);stop-opacity:1"/></linearGradient>
        <linearGradient id="_Linear12" x1="0" y1="0" x2="1" y2="0" gradientUnits="userSpaceOnUse" gradientTransform="matrix(1,0,0,-1,0,0.000002)"><stop offset="0" style="stop-color:rgb(249,193,100);stop-opacity:1"/><stop offset="0.22" style="stop-color:rgb(240,144,122);stop-opacity:1"/><stop offset="0.45" style="stop-color:rgb(207,115,171);stop-opacity:1"/><stop offset="0.67" style="stop-color:rgb(143,121,182);stop-opacity:1"/><stop offset="1" style="stop-color:rgb(85,181,231);stop-opacity:1"/></linearGradient>
        <linearGradient id="_Linear13" x1="0" y1="0" x2="1" y2="0" gradientUnits="userSpaceOnUse" gradientTransform="matrix(1,0,0,-1,0,-0.005571)"><stop offset="0" style="stop-color:rgb(249,193,100);stop-opacity:1"/><stop offset="0.22" style="stop-color:rgb(240,144,122);stop-opacity:1"/><stop offset="0.45" style="stop-color:rgb(207,115,171);stop-opacity:1"/><stop offset="0.67" style="stop-color:rgb(143,121,182);stop-opacity:1"/><stop offset="1" style="stop-color:rgb(85,181,231);stop-opacity:1"/></linearGradient>
    </defs>
</svg>
