<svg class="svg__img svg__color home__img" xmlns="http://www.w3.org/2000/svg" viewBox="0 0 4400 2000">
<defs>
<style>
                                .cls-1 {
                                    fill: #fff;
                                }

                                .cls-2 {
                                    fill: #96d9c9;
                                }

                                .cls-3 {
                                    fill: #3c8f7c;
                                }

                                .cls-4 {
                                    fill: #50bfa5;
                                }

                                .cls-5 {
                                    fill: #f7a491;
                                }

                                .cls-6 {
                                    fill: #f47458;
                                }

                                .cls-7 {
                                    fill: #355389;
                                }

                                .cls-8 {
                                    fill: #9bc1f9;
                                }

                                .cls-9 {
                                    fill: #13375b;
                                }

                                .cls-10 {
                                    fill: #b75742;
                                }

                                .cls-11 {
                                    fill: #184655;
                                }

                                .cls-12 {
                                    fill: #86b1f2;
                                }

                                .cls-13 {
                                    fill: #466eb6;
                                }

                                .cls-14 {
                                    opacity: 0.57;
                                }

                                .cls-15 {
                                    fill: #5bcff7;
                                }

                                .cls-16 {
                                    fill: #f7cc7f;
                                }

                                .cls-17 {
                                    fill: #efefef;
                                }

                                .cls-18 {
                                    fill: #f48c7f;
                                }

                                .cls-19 {
                                    fill: #fae0b2;
                                }

                                .cls-20 {
                                    fill: #ffd09f;
                                }

                                .cls-21 {
                                    fill: #ffb769;
                                }

                                .cls-22 {
                                    fill: #f70;
                                }

                                .cls-23 {
                                    fill: #f8a492;
                                }

                                .cls-24 {
                                    fill: #fe875e;
                                }

                                .cls-25 {
                                    fill: #1d211d;
                                }
                            </style>
</defs>
<rect class="cls-1" width="4400" height="2000"></rect>
<g>
<g>
<g>
<path class="cls-2" d="M3536.68,1315.1c43.94-62.07,52.13-137,51.27-189-.93-56.39-12.44-98.62-12.55-99l3.17-1c.12.42,11.72,43,12.67,99.73.88,52.45-7.41,128.18-51.89,191Z"></path>
<path class="cls-2" d="M3564.58,1016.78c1.08,12.76,7.32,23.46,16.32,30a45.89,45.89,0,0,0,10.92-33.81c-1.08-12.77-7.32-23.47-16.32-30A45.93,45.93,0,0,0,3564.58,1016.78Z"></path>
<path class="cls-2" d="M3594.27,1046.24c-7.45,11-9.76,23.61-7.37,34.53a49.19,49.19,0,0,0,29.91-20.73c7.45-11,9.76-23.61,7.37-34.53A49.08,49.08,0,0,0,3594.27,1046.24Z"></path>
<path class="cls-2" d="M3611.09,1080.9c-11.57,6.81-19.42,17.32-22.43,28.4,11,2.84,23.9,1.13,35.47-5.68s19.42-17.32,22.43-28.4C3635.56,1072.39,3622.67,1074.09,3611.09,1080.9Z"></path>
<path class="cls-2" d="M3605.91,1129.18a34.54,34.54,0,0,0-16.4,24.88,33.69,33.69,0,0,0,29.46-2.18,34.56,34.56,0,0,0,16.39-24.89A33.7,33.7,0,0,0,3605.91,1129.18Z"></path>
<path class="cls-2" d="M3568,1072a40.89,40.89,0,0,0-31.7-1.66,36.76,36.76,0,0,0,19.84,23.25,40.89,40.89,0,0,0,31.7,1.66A36.76,36.76,0,0,0,3568,1072Z"></path>
<path class="cls-2" d="M3569.18,1105.32a40.87,40.87,0,0,0-31.69-1.66,36.7,36.7,0,0,0,19.84,23.25,40.86,40.86,0,0,0,31.69,1.66A36.7,36.7,0,0,0,3569.18,1105.32Z"></path>
<path class="cls-2" d="M3599.27,1182.21a19.93,19.93,0,0,0-12.69,8.8,17.88,17.88,0,0,0,14.56,3,19.88,19.88,0,0,0,12.69-8.8A17.87,17.87,0,0,0,3599.27,1182.21Z"></path>
</g>
<g>
<path class="cls-2" d="M3600.3,1632.29c100.55-21.74,177.23-89,223.86-141.57,50.61-57.09,77.73-109.72,78-110.24l4.09,1.89c-.27.53-27.58,53.55-78.52,111-47.07,53.12-124.56,121-226.35,143.06Z"></path>
<path class="cls-2" d="M3900.8,1360.3c-10.59,13.71-14.14,30.1-11.18,44.87a62.11,62.11,0,0,0,41.8-23.74c10.59-13.71,14.14-30.1,11.18-44.87A62.11,62.11,0,0,0,3900.8,1360.3Z"></path>
<path class="cls-2" d="M3903.48,1416.82c-17.52,4.2-31.32,14.62-38.91,27.69,13.63,8,31.24,10.87,48.77,6.67s31.32-14.63,38.92-27.69C3938.63,1415.51,3921,1412.62,3903.48,1416.82Z"></path>
<path class="cls-2" d="M3888.57,1466.76c-17.76-3.78-35.19-.47-48.33,7.82,8.38,12.88,22.8,23,40.56,26.75s35.2.48,48.34-7.81C3920.76,1480.64,3906.34,1470.55,3888.57,1466.76Z"></path>
<path class="cls-2" d="M3848.51,1512.18c-17.76-3.78-35.19-.48-48.33,7.82,8.38,12.87,22.8,23,40.57,26.75s35.19.48,48.33-7.81C3880.7,1526.06,3866.28,1516,3848.51,1512.18Z"></path>
<path class="cls-2" d="M3860.5,1436.68a55.37,55.37,0,0,0-14.33-40.48c-10.68,8.24-17.9,21.38-18.8,36.83a55.31,55.31,0,0,0,14.32,40.48C3852.38,1465.27,3859.6,1452.13,3860.5,1436.68Z"></path>
<path class="cls-2" d="M3818.72,1483.66a55.36,55.36,0,0,0-13.64-40.71c-10.83,8.06-18.27,21.08-19.42,36.51a55.36,55.36,0,0,0,13.64,40.71C3810.12,1512.11,3817.56,1499.1,3818.72,1483.66Z"></path>
<path class="cls-2" d="M3784.19,1557a26.92,26.92,0,0,0-20.7-2.83,24.15,24.15,0,0,0,11.74,16.34,26.91,26.91,0,0,0,20.7,2.82A24.19,24.19,0,0,0,3784.19,1557Z"></path>
</g>
<path class="cls-3" d="M3417.63,1533.83s48.55-377.72,108.81-377.84c54.93-.1.74,142.61,7.35,172.36s60-91.11,114.54-147.3,87.93-25.19,56.31,43c-30.57,65.91-141.3,143.15-116.52,149.76s163.8-85.21,184.74-51.37c25.69,41.49-188.44,114.73-167,123s123.49-30.58,123.49,2.47-141,41.32-137.29,55.61c5.94,23.14,135.81-25.48,142.72,6.63,7.07,32.84-161.52,24.7-157.08,50.38,2.56,14.77,34.61-.68,40.41,19.61,13.22,46.27-220.36,67.75-220.36,67.75Z"></path>
<path class="cls-2" d="M3016.75,1546.32c-36.67,15-26.78,52.43-26.78,52.43s-99.43-68-136.6-28.32-17.64,117.54,26,130.19,409.39,1.75,409.39,1.75l51.47-38.6S3049.74,1532.78,3016.75,1546.32Z"></path>
<g>
<path class="cls-2" d="M3199.59,1462.71l-5.24-.31c7.54-125.27-43.3-243.13-87.29-319.94-47.73-83.36-97.91-137.73-98.41-138.27l3.84-3.58c.5.55,51,55.28,99.06,139.13C3155.92,1217.2,3207.21,1336.11,3199.59,1462.71Z"></path>
<path class="cls-2" d="M2985.91,997c12,18.21,29.13,29.51,46.55,32.61,2.95-18.95-1.32-40.29-13.27-58.5s-29.13-29.52-46.56-32.62C2969.69,957.46,2974,978.8,2985.91,997Z"></path>
<path class="cls-2" d="M3049.85,1018.83c-.86,22,6.42,42.44,18.6,56.93,13.22-12.15,22-31.13,22.88-53.12s-6.43-42.45-18.61-56.94C3059.51,977.85,3050.7,996.83,3049.85,1018.83Z"></path>
<path class="cls-2" d="M3100.88,1058a81.86,81.86,0,0,0-6.56,59c17-4,32.85-16.08,42.7-34.84a81.86,81.86,0,0,0,6.56-59C3126.55,1027.09,3110.73,1039.21,3100.88,1058Z"></path>
<path class="cls-2" d="M3135.94,1154.19a34.38,34.38,0,0,0-4.6,24.51c7.26-1.12,14.27-5.7,19-13.25a34.36,34.36,0,0,0,4.61-24.52C3147.67,1142.06,3140.66,1146.64,3135.94,1154.19Z"></path>
<path class="cls-2" d="M3151.07,1188.73a34.38,34.38,0,0,0-4.6,24.51c7.25-1.12,14.27-5.7,19-13.25a34.41,34.41,0,0,0,4.61-24.52C3162.8,1176.6,3155.79,1181.18,3151.07,1188.73Z"></path>
<path class="cls-2" d="M3036,1076.68a56.7,56.7,0,0,0-43.71,21.1,61,61,0,0,0,45.66,19.89,56.66,56.66,0,0,0,43.71-21.09A61.07,61.07,0,0,0,3036,1076.68Z"></path>
<path class="cls-2" d="M3065,1125.51a56.7,56.7,0,0,0-43.7,21.09,61,61,0,0,0,45.66,19.9,56.66,56.66,0,0,0,43.71-21.09A61.05,61.05,0,0,0,3065,1125.51Z"></path>
<path class="cls-2" d="M3113,1192.05a36.89,36.89,0,0,0-28.44,13.73,39.75,39.75,0,0,0,29.72,13,36.89,36.89,0,0,0,28.44-13.73A39.75,39.75,0,0,0,3113,1192.05Z"></path>
</g>
<g>
<path class="cls-4" d="M3341.06,1663.68s-302.07-50.51-367.78-104-36.67-74.35-36.67-74.35-115.74-81.1-114-134,77.14-26,77.14-26-127.85-145.8-97.58-173.49c56.38-51.57,204.19,100,204.19,100s-43.89-72.08,2.33-83.49c69.71-17.2,121.16,160.53,121.16,160.53s-13.07-70.19,35-60.84C3251.1,1284.78,3341.06,1663.68,3341.06,1663.68Z"></path>
<path class="cls-3" d="M3176.16,1249.7c-67.1-16.23-46.3,79.14-46.3,79.14s-51.45-177.73-121.16-160.53c-46.22,11.41-2.33,83.49-2.33,83.49s-147.81-151.56-204.19-100l537.86,512C3330.47,1614.87,3243.19,1265.93,3176.16,1249.7Z"></path>
</g>
<g>
<path class="cls-4" d="M3416.11,1696.46s92.6-94.25,139.25-104.08,38.27,23.37,38.27,23.37,92.53-81,114-61.38-1.74,38.55-1.74,38.55,77.09-13.69,88.14,11.6c17,38.87-109.82,60.08-109.82,60.08s53.14,3.66,40.83,28C3706.46,1729.41,3416.11,1696.46,3416.11,1696.46Z"></path>
<path class="cls-2" d="M3794,1604.52c-11.05-25.29-88.14-11.6-88.14-11.6s23.19-18.94,1.74-38.55-111.11,50.37-111.11,50.37,21.12-40.43-25.52-30.6-154.88,122.32-154.88,122.32Z"></path>
</g>
<path class="cls-2" d="M2955.09,861.59a20.93,20.93,0,0,1,7-17.05c7.3-6.53,17.84-4.87,24.27,2.3,7.43,8.31,9.37,24.28-.79,48.76-25.45,7.4-41.11,3.71-48.54-4.6-6.43-7.17-6.91-17.84.39-24.37A20.93,20.93,0,0,1,2955.09,861.59Z"></path>
<path class="cls-4" d="M2986.32,846.84c-6.43-7.17-17-8.83-24.27-2.29a20.9,20.9,0,0,0-7,17s30.36,34,30.44,34C2995.69,871.12,2993.75,855.15,2986.32,846.84Z"></path>
<path class="cls-4" d="M3130,948.76a20.89,20.89,0,0,1,9.34-15.86c8.17-5.42,18.37-2.26,23.69,5.77,6.16,9.29,5.78,25.37-7.81,48.13-26.25,3.66-41.21-2.25-47.37-11.54-5.32-8-4.26-18.65,3.9-24.07A20.93,20.93,0,0,1,3130,948.76Z"></path>
<path class="cls-2" d="M3163.06,938.67c-5.32-8-15.52-11.19-23.69-5.77a20.89,20.89,0,0,0-9.34,15.86l25.22,38C3168.84,964,3169.22,948,3163.06,938.67Z"></path>
<path class="cls-4" d="M2698.31,1100.79c4,7.57,12.41,11,18.88,7.76s8.68-12.38,4.71-20.19-12.51-11.43-19.08-8.1a11.58,11.58,0,0,0-4.19,3.66l-10.43-22.43,38.27-6.71,17.84,38.36h0l.06.14c4,7.81,12.51,11.43,19.08,8.1s8.67-12.38,4.71-20.19-12.51-11.43-19.08-8.1a11.56,11.56,0,0,0-4.19,3.65l-19.1-41.08a3,3,0,0,0-3.17-1.87l-47.67,9.66c-1.59.33-2.32,2.23-1.51,4l24.83,53.4Z"></path>
<path class="cls-2" d="M2843.43,929.05c-.54-2.35-7.42-27.76-15.83-59-32.54,10.18-31.33,10.28-62.92,11.53,4.27,16,8.65,32.15,12.22,45.1-17.33-2.92-33.54,19.93-22.94,31.76,11.45,12.77,37.66-4,33.76-21.69h0c-.37-1.62-4.29-15.72-10.33-38l47.26-8.92c1.87,6.88,4.35,15.88,8,29.07-17.24-2.9-33.59,19.89-22.94,31.77,5.87,6.53,17.54,5.67,26-1.94,6.14-5.5,9.17-13.26,7.73-19.75Z"></path>
</g>
<g>
<path class="cls-3" d="M1232,1401.4s188.14-326.37,128.38-367.84c-54.49-37.81-75.71,59-102.7,84s2.95-67.62-12.64-160.85-30.91-56.63-46.3,32.76c-14.89,86.45,3,146.37-26.21,135.92s-105.86-150.09-149.89-130.86c-54,23.57,110.08,196.33,83.07,189.79s-77.07-112.74-99.76-79.91,87.05,135.37,73.6,147c-21.78,18.91-117.38-118.52-146.29-91.37-29.57,27.75,143.46,135.39,121.41,157.85-12.67,12.91-159.08-115.82-178.77-99.65-44.89,36.88,297.52,309.92,297.52,309.92Z"></path>
<path class="cls-2" d="M901.08,1507.83c-44.28,18.17-32.33,63.29-32.33,63.29s-120-82.12-164.92-34.19-21.29,141.89,31.34,157.17,494.23,2.11,494.23,2.11l62.14-46.6S940.9,1491.48,901.08,1507.83Z"></path>
 <g>
<path class="cls-2" d="M1000.49,1616.83l-3.88,3.11c-74.28-92.9-184.94-143.5-264.68-169.59-86.54-28.31-156.39-34.68-157.09-34.74l.44-4.95c.7.06,71,6.46,158.08,34.92C813.78,1471.88,925.42,1522.94,1000.49,1616.83Z"></path>
<path class="cls-2" d="M554.29,1425c20,5.21,39.24,2.26,53.47-6.64-10-15.2-26.53-27.5-46.51-32.72s-39.24-2.25-53.47,6.64C517.75,1407.5,534.31,1419.8,554.29,1425Z"></path>
<path class="cls-2" d="M613.13,1399.73c13.37,16,31.48,25.78,49.26,28.23,1.57-16.94-4.29-35.88-17.66-51.9s-31.49-25.78-49.27-28.23C593.89,1364.78,599.75,1383.72,613.13,1399.73Z"></path>
<path class="cls-2" d="M673.9,1394.84a77.53,77.53,0,0,0,32.87,45.67c9.46-13.6,12.89-32.18,7.9-51.63a77.59,77.59,0,0,0-32.88-45.68C672.33,1356.81,668.91,1375.39,673.9,1394.84Z"></path>
<path class="cls-2" d="M759.7,1440.25A32.58,32.58,0,0,0,772,1460.42c4.39-5.4,6.41-13.08,4.93-21.39a32.62,32.62,0,0,0-12.33-20.17C760.24,1424.26,758.21,1431.94,759.7,1440.25Z"></path>
<path class="cls-2" d="M792.28,1454.93a32.58,32.58,0,0,0,12.34,20.17c4.39-5.4,6.41-13.08,4.93-21.38a32.57,32.57,0,0,0-12.33-20.17C792.82,1439,790.8,1446.63,792.28,1454.93Z"></path>
<path class="cls-2" d="M640.17,1449.21a53.73,53.73,0,0,0-17.35,42.61,57.9,57.9,0,0,0,44.77-15,53.75,53.75,0,0,0,17.34-42.61A57.8,57.8,0,0,0,640.17,1449.21Z"></path>
<path class="cls-2" d="M691.59,1465.14a53.72,53.72,0,0,0-17.34,42.6,57.81,57.81,0,0,0,44.76-15,53.75,53.75,0,0,0,17.34-42.61A57.84,57.84,0,0,0,691.59,1465.14Z"></path>
<path class="cls-2" d="M767.62,1481.45a35,35,0,0,0-11.29,27.73,37.64,37.64,0,0,0,29.14-9.77,35,35,0,0,0,11.29-27.73A37.67,37.67,0,0,0,767.62,1481.45Z"></path>
</g>
<g>
<path class="cls-4" d="M1292.59,1649.52s-310.52-51.93-378.06-107-.69-79.83-.69-79.83-156-80-154.18-134.34,79.3-26.73,79.3-26.73S707.52,1151.8,738.64,1123.34c58-53,209.9,102.78,209.9,102.78s-45.11-74.09,2.4-85.82c71.66-17.68,124.55,165,124.55,165s-13.44-72.15,36-62.53C1200.12,1260,1292.59,1649.52,1292.59,1649.52Z"></path>
<path class="cls-3" d="M1123.08,1224c-68.64-18-47.59,81.34-47.59,81.34s-52.89-182.69-124.55-165c-47.52,11.73-2.4,85.82-2.4,85.82s-151.94-155.8-209.9-102.78l552.9,526.27C1281.7,1599.34,1183.79,1239.92,1123.08,1224Z"></path>
</g>
</g>
<path class="cls-5" d="M3193.58,1589.82a248.1,248.1,0,0,0-24.52,34.8c-.51,1-.71,6.71-1.22,7.75-21.15,13.91-43.55,10.05-61.94,4.32,12.1-5.24,29-11.31,30.54-13.85,2.52-4,14-18.67,25.94-45C3171.86,1587.29,3180.79,1586.2,3193.58,1589.82Z"></path>
<path class="cls-6" d="M3168.84,1625.39c1.85,8.44,1.11,25.58-.56,25.95-2,.45-73,10.94-82.09,1.82-5.46-5.48,4.85-9.69,19.71-16.47C3124.29,1642.42,3168.16,1631.11,3168.84,1625.39Z"></path>
<path class="cls-7" d="M3152.85,1589.07l36.91,12.79L3388.5,1437s-48.5-.62-135.41,8.26C3227.1,1447.91,3152.85,1589.07,3152.85,1589.07Z"></path>
<g>
<path class="cls-8" d="M2872.58,1616.07c18.08-86.58-46.08-167.84-128.46-160.75-75.48,6.54-125.48,86.94-108.47,160.75H1788c17.17-74.39-33.62-154.27-108.51-160.75-82.34-7.09-146.54,74.17-128.47,160.75H1314.16c14.52-214.91,25.4-376.12,40.31-596.64,1.52-22.85,19.19-40.43,40.35-40.21l45.22.55c157.15,2-25.47-.3,913.67,11.31,138,1.73,219.06,84.79,231.61,92.08,254.18,199.91,266.52,201.73,301,241.68,48.36,55.82,77.68,128.78,81.73,206.52l4.46,84.71Z"></path>
<rect class="cls-9" x="1281.25" y="1470.47" width="377.24" height="145.59" rx="12.51"></rect>
<polygon class="cls-10" points="1369.86 1272.68 1337.35 1272.68 1333.83 1324.83 1369.86 1324.83 1369.86 1272.68"></polygon>
<polygon class="cls-10" points="1331.6 1357.79 1323.98 1470.47 1369.86 1470.47 1369.86 1357.79 1331.6 1357.79"></polygon>
<path class="cls-8" d="M1788.21,1632.09a253.43,253.43,0,0,0,1.06-66.85h845a256,256,0,0,0,1.11,66.85Z"></path>
<path class="cls-11" d="M2501.57,1456.73h0c-5.59,0-10.12-4.92-10.12-11V1356c0-6.07,4.53-11,10.12-11h0c5.6,0,10.13,4.92,10.13,11v89.74C2511.7,1451.81,2507.17,1456.73,2501.57,1456.73Z"></path>
<path class="cls-12" d="M2988.38,1610.13H2823.1v-158c0-28.08,21-50.82,46.84-50.82h44c35.55,0,66.29,27.08,73.63,64.83,30.6,157.8,20.05,103.38,22.33,115.15C3012.75,1596,3002.51,1610.13,2988.38,1610.13Z"></path>
<path class="cls-8" d="M3016.41,1617.43H2823.53V1513.05h106c41.52,0,77.37,13.52,85.92,32.4C3015.48,1545.45,3032.73,1617.43,3016.41,1617.43Z"></path>
<ellipse class="cls-11" cx="2744.8" cy="1581.31" rx="125.21" ry="135.85"></ellipse>
<g>
<ellipse class="cls-11" cx="1685.67" cy="1581.31" rx="125.21" ry="135.85"></ellipse>
<path class="cls-13" d="M1759.24,1581.31c0,44.09-32.94,79.82-73.57,79.82s-73.57-35.73-73.57-79.82,32.94-79.82,73.57-79.82S1759.24,1537.22,1759.24,1581.31Z"></path>
<path class="cls-8" d="M1727.83,1581.31c0,25.27-18.87,45.75-42.16,45.75s-42.17-20.48-42.17-45.75,18.88-45.75,42.17-45.75S1727.83,1556.05,1727.83,1581.31Z"></path>
</g>
<g>
<rect class="cls-9" x="1497" y="930.14" width="895.59" height="26.61"></rect>
<path class="cls-9" d="M1704.36,998.7h0c-5.13,0-9.28-4.51-9.28-10.07V956.75h18.56v31.88C1713.64,994.19,1709.49,998.7,1704.36,998.7Z"></path>
<path d="M2241.1,998.7h0c-5.13,0-9.28-4.51-9.28-10.07V956.75h18.56v31.88C2250.38,994.19,2246.23,998.7,2241.1,998.7Z"></path>
</g>
<rect class="cls-9" x="1404.79" y="1076.32" width="308.86" height="104.24" rx="31.5"></rect>
<rect class="cls-9" x="1800.76" y="1056.61" width="591.83" height="288.41" rx="35.42"></rect>
<rect class="cls-11" x="2021.37" y="1349.25" width="12.81" height="256.48"></rect>
<rect class="cls-11" x="2462.07" y="1266.43" width="12.81" height="323.53"></rect>
<path class="cls-9" d="M2458.86,1071.56l1.7,218c.06,6.94,5.25,12.53,11.65,12.53h309c11.37,0,16-15.87,6.7-23l-277.11-211.5c-2.68-2-23.9-6.06-38.41-8.66C2465.26,1057.7,2458.8,1063.72,2458.86,1071.56Z"></path>
</g>
<g>
<rect class="cls-13" x="2750.59" y="1510.03" width="837.35" height="189.13"></rect>
<path class="cls-12" d="M3628.86,1604.59c0,52.23-18.33,94.57-40.93,94.57s-40.92-42.34-40.92-94.57,18.32-94.56,40.92-94.56S3628.86,1552.37,3628.86,1604.59Z"></path>
<path class="cls-13" d="M2791.51,1604.59c0,52.23-18.32,94.57-40.92,94.57s-40.93-42.34-40.93-94.57S2728,1510,2750.59,1510,2791.51,1552.37,2791.51,1604.59Z"></path>
<path class="cls-9" d="M3609.2,1629.51c-6.37-2.16,9.23-17.23,2.38-52.11-5.41-27.59-24.49-45.72-32.65-47.15a2.44,2.44,0,0,1-2-2.82c2.1-11.89,59.35,30,35.35,100.55A2.43,2.43,0,0,1,3609.2,1629.51Z"></path>
<path class="cls-9" d="M3574,1680.7c-16.59-16.47-20.13-58.09-20.1-83.22a2.44,2.44,0,0,1,2.44-2.44h0a2.44,2.44,0,0,1,2.44,2.44c-.06,49.56,13.42,88.53,30.41,84.51,10.85-2.57,9.42-13.17,14-11.29,5,2-3.85,13.9-12.9,16C3583.62,1688.34,3578.84,1685.47,3574,1680.7Z"></path>
<path class="cls-9" d="M3583.66,1651.44a83.56,83.56,0,0,1-4.46-69.78c1.17-3,5.72-1.23,4.55,1.78a78.58,78.58,0,0,0,4.19,65.65,2.44,2.44,0,1,1-4.28,2.35Z"></path>
</g>
<g>
<path class="cls-6" d="M1947.93,806.46a6.07,6.07,0,0,1-6.07-6.07c0-80.72,65.67-146.39,146.39-146.39a146.5,146.5,0,0,1,94.54,34.61,6.08,6.08,0,0,1-7.85,9.28,134.32,134.32,0,0,0-86.69-31.74c-74,0-134.24,60.22-134.24,134.24A6.08,6.08,0,0,1,1947.93,806.46Z"></path>
<g>
<path class="cls-10" d="M1853.65,797.62a5.06,5.06,0,0,1-4.42-2.59L1737.52,595.28a5.06,5.06,0,0,1,8.84-4.94l115.75,199.19c1.37,2.44-3.55,6.08-6,7.44A5,5,0,0,1,1853.65,797.62Z"></path>
<path class="cls-10" d="M1987.09,607.4h0a5.06,5.06,0,0,0-6-5.28l-212.67,39.26c-98,168.92-92.87,157.65-91,161.32,2.69,5.22-2.32,1.54,185.75,4.81C1988.86,605.71,1986.93,610,1987.09,607.4ZM1857.62,797.32l-166.92-1.9,84.16-144.93,196.81-36.33Z"></path>
</g>
 <g class="cls-14">
<path class="cls-12" d="M2086.1,888.33a88,88,0,0,1-87.95-87.94,87,87,0,0,1,9.7-40.19,2,2,0,0,1,3.6,1.85,83,83,0,0,0-9.25,38.34,84,84,0,0,0,83.9,83.89,83.09,83.09,0,0,0,34.87-7.57,2,2,0,1,1,1.69,3.69A87.35,87.35,0,0,1,2086.1,888.33Z"></path>
</g>
<path class="cls-7" d="M2086.1,930a129.61,129.61,0,1,1,129.61-129.61A129.75,129.75,0,0,1,2086.1,930Zm0-243a113.41,113.41,0,1,0,113.41,113.41A113.53,113.53,0,0,0,2086.1,687Z"></path>
<g class="cls-14">
<path class="cls-12" d="M2086.1,901a100.59,100.59,0,1,1,100.58-100.58A100.7,100.7,0,0,1,2086.1,901Zm0-197.12a96.54,96.54,0,1,0,96.53,96.54A96.65,96.65,0,0,0,2086.1,703.85Z"></path>
</g>
<path class="cls-10" d="M2088.25,805.45a5.06,5.06,0,0,1-4.44-2.62L1947.47,554.7a16.11,16.11,0,0,1-2-7.77V530.84c0-3.16-.72-6.41-1.64-6.93s-4.74.15-7.45,1.78l-23.74,14.25a5.07,5.07,0,0,1-5.21-8.69L1931.17,517c5-3,13.34-4.34,18.47-1.44s6,9.38,6,15.27v16.09a6.06,6.06,0,0,0,.74,2.89L2092.68,798a5.06,5.06,0,0,1-2,6.88A5.11,5.11,0,0,1,2088.25,805.45Z"></path>
<path class="cls-7" d="M1682,930c-71.46,0-129.61-58.14-129.61-129.61S1610.5,670.78,1682,670.78s129.62,58.14,129.62,129.61S1753.43,930,1682,930Zm0-243a113.41,113.41,0,1,0,113.41,113.41A113.54,113.54,0,0,0,1682,687Z"></path>
<path class="cls-12" d="M1682,901a100.59,100.59,0,1,1,100.59-100.58A100.69,100.69,0,0,1,1682,901Zm0-197.12a96.54,96.54,0,1,0,96.54,96.54A96.65,96.65,0,0,0,1682,703.85Z"></path>
<path class="cls-12" d="M1682,888.33A88,88,0,0,1,1594,800.39a87,87,0,0,1,9.7-40.19,2,2,0,0,1,3.6,1.85,83,83,0,0,0-9.25,38.34A84,84,0,0,0,1682,884.28a83.14,83.14,0,0,0,34.88-7.57,2,2,0,0,1,1.68,3.69A87.35,87.35,0,0,1,1682,888.33Z"></path>
<path class="cls-12" d="M1744.68,743.68a2,2,0,0,1-1.48-.64A84.24,84.24,0,0,0,1682,716.49a2,2,0,0,1,0-4,88.32,88.32,0,0,1,64.2,27.83,2,2,0,0,1-.1,2.86A2,2,0,0,1,1744.68,743.68Z"></path>
<path class="cls-6" d="M1772.58,699.33a6.1,6.1,0,0,1-3.93-1.44,134.3,134.3,0,0,0-161.43-9,6.07,6.07,0,0,1-6.78-10.08,146.45,146.45,0,0,1,176.06,9.83,6.08,6.08,0,0,1-3.92,10.72Z"></path>
<path class="cls-11" d="M1682,786.89a1.56,1.56,0,0,1-.07-3.12l178.45-8.27a1.56,1.56,0,0,1,.15,3.12L1682,786.89Z"></path>
<path class="cls-11" d="M1863,825.28h-.08l-181-8.27a1.56,1.56,0,0,1,.15-3.12l181,8.27a1.56,1.56,0,0,1-.07,3.12Z"></path>
<path class="cls-12" d="M1831.33,800.39a29.09,29.09,0,1,0,29.08-29.09A29.08,29.08,0,0,0,1831.33,800.39Z"></path>
<g>
<path class="cls-12" d="M1901.93,871.52a2,2,0,0,1-1.72-1l-41.52-67.08a2,2,0,1,1,3.45-2.13l41.51,67.08a2,2,0,0,1-.65,2.79A2.12,2.12,0,0,1,1901.93,871.52Z"></path>
<path class="cls-11" d="M1879.65,876.84a4.05,4.05,0,0,1-.59-8.06l44.56-6.58a4,4,0,0,1,1.18,8l-44.55,6.59C1880,876.82,1879.85,876.84,1879.65,876.84Z"></path>
</g>
<path class="cls-11" d="M1714.1,583.19h39.5a5.3,5.3,0,0,1,5.3,5.3v6.35a5.3,5.3,0,0,1-5.3,5.31h-49.88a5.3,5.3,0,0,1-4.81-7.57A17,17,0,0,1,1714.1,583.19Z"></path>
<path class="cls-11" d="M1682,822a21.63,21.63,0,1,1,21.63-21.63A21.65,21.65,0,0,1,1682,822Z"></path>
<path class="cls-13" d="M1663.46,800.39a18.51,18.51,0,1,0,18.5-18.51A18.5,18.5,0,0,0,1663.46,800.39Z"></path>
<path class="cls-15" d="M1687.2,800.39a5.24,5.24,0,1,1-5.24-5.24A5.24,5.24,0,0,1,1687.2,800.39Z"></path>
<path class="cls-13" d="M2067.59,800.39a18.51,18.51,0,1,0,18.51-18.51A18.51,18.51,0,0,0,2067.59,800.39Z"></path>
<path class="cls-15" d="M2091.33,800.39a5.24,5.24,0,1,1-5.23-5.24A5.23,5.23,0,0,1,2091.33,800.39Z"></path>
<path class="cls-16" d="M1882.83,555.69l20.35-25c6.12-7.53,17.47,1.72,11.37,9.23l-20.35,25C1888.09,572.45,1876.71,563.22,1882.83,555.69Z"></path>
</g>
<path class="cls-8" d="M2967.05,595.63l.61-17L2954,568.43a2.34,2.34,0,0,1,.76-4.13l16.39-4.69,5.43-16.16a2.35,2.35,0,0,1,4.17-.56l9.52,14.15,17,.17a2.34,2.34,0,0,1,1.82,3.79l-10.51,13.42,5.1,16.27a2.34,2.34,0,0,1-3,2.9l-16-5.85-13.89,9.88A2.34,2.34,0,0,1,2967.05,595.63Z"></path>
<path class="cls-16" d="M2351.6,456l.54-15.08-12.11-9a2.07,2.07,0,0,1,.67-3.66l14.51-4.14,4.8-14.3a2.08,2.08,0,0,1,3.69-.5l8.43,12.52,15.08.16a2.07,2.07,0,0,1,1.61,3.35l-9.3,11.88,4.52,14.39a2.07,2.07,0,0,1-2.69,2.57L2367.17,449l-12.29,8.74A2.08,2.08,0,0,1,2351.6,456Z"></path>
<path class="cls-16" d="M2203.14,392.33l.63-17.42-14-10.39a2.4,2.4,0,0,1,.76-4.23l16.76-4.79,5.56-16.52a2.4,2.4,0,0,1,4.26-.57l9.73,14.46,17.43.18a2.39,2.39,0,0,1,1.86,3.87l-10.74,13.73,5.21,16.63a2.39,2.39,0,0,1-3.11,3l-16.37-6-14.21,10.1A2.4,2.4,0,0,1,2203.14,392.33Z"></path>
<path class="cls-16" d="M1232.33,525.81l.63-17.42L1219,498a2.39,2.39,0,0,1,.77-4.22l16.76-4.79,5.56-16.52a2.4,2.4,0,0,1,4.26-.58l9.73,14.46,17.43.18a2.4,2.4,0,0,1,1.86,3.88l-10.74,13.72,5.21,16.63a2.4,2.4,0,0,1-3.11,3l-16.37-6-14.21,10.1A2.39,2.39,0,0,1,1232.33,525.81Z"></path>
<g>
<ellipse class="cls-16" cx="3314.49" cy="928.49" rx="68.86" ry="68.88" transform="translate(-125.1 1059.56) rotate(-17.83)"></ellipse>
<path class="cls-17" d="M3276.82,936a36.82,36.82,0,0,0,73.32,6.82Z"></path>
</g>
<g>
<path class="cls-16" d="M1973.78,413.33a18.48,18.48,0,1,1-18.47-18.47A18.48,18.48,0,0,1,1973.78,413.33Z"></path>
<path class="cls-16" d="M1946.14,359.12c.73,5.42,1,11.19,2.46,16.47,1.26,4.54,8.27,3.67,8.25-1.11,0-5.86-1.43-11.9-2.26-17.69-.33-2.35-3.32-3.63-5.39-3.06-2.54.69-3.38,3-3.06,5.39Z"></path>
<path class="cls-16" d="M1913,379.76c5.86,4,10.87,8.86,16.21,13.51,4.18,3.63,9.32-1.77,6-6-4.8-6-11.32-10.95-17.65-15.3-2-1.37-5-.37-6.14,1.61a4.59,4.59,0,0,0,1.61,6.15Z"></path>
<path class="cls-16" d="M1922.25,413.55a3.17,3.17,0,0,0,1.1-4.19c-1.81-3.89-7.06-4.07-10.8-4.2a39.79,39.79,0,0,0-11.59,1.38c-5.56,1.48-3.21,10.11,2.37,8.63C1914.25,412.27,1918,416.5,1922.25,413.55Z"></path>
<path class="cls-16" d="M1925.63,449.8c5.91-7.48,10.48-9.82,10.09-14.19a3.71,3.71,0,0,0-4.61-3.51c-2.93.45-4.71,3.39-6.58,5.42s-3.57,3.89-5.2,6c-1.48,1.89-1.85,4.45,0,6.3,1.55,1.54,4.8,1.89,6.3,0Z"></path>
<path class="cls-16" d="M1946.43,452.61c1.39,4.87,1.64,6.63,3.71,9,1.8,2.06,6,1.12,6.44-1.7.54-3.27-.06-4.55-1.52-9.67a4.48,4.48,0,1,0-8.63,2.38Z"></path>
<path class="cls-16" d="M1969.8,442.66c7.33,6.42,8.79,8.18,11.85,8.07,1.79-.06,3.91-1.64,3.66-3.66-.47-3.77-2.56-4.93-9.31-10.61a4.51,4.51,0,0,0-6.2,0,4.42,4.42,0,0,0,0,6.2Z"></path>
<path class="cls-16" d="M2002.73,417.89c3.16-1.4,2.3-6.76-1-7.42s-4.39-.21-19.93,1.53c-2.4.27-4.48,1.87-4.48,4.48,0,2.21,2.06,4.73,4.48,4.47C1998,419.18,1999.56,419.3,2002.73,417.89Z"></path>
<path class="cls-16" d="M1980.43,391.11c9-7.56,10.11-6,13.78-10.78,1.67-2.17-.58-6-3.26-5.68-3.44.39-4.39.9-9.06,4.1-2.71,1.86-5.32,3.87-7.84,6-1.87,1.57-1.62,4.77,0,6.38a4.61,4.61,0,0,0,6.38,0Z"></path>
</g>
<polygon class="cls-18" points="1706.38 476.46 1687.2 470.83 1680.44 493.28 1661.28 488.8 1652.76 509.46 1637.8 509.09 1637.06 518.61 1657.06 519.1 1665.14 499.52 1685.07 504.19 1691.72 482.11 1709.11 487.21 1706.38 476.46"></polygon>
<g>
<path class="cls-18" d="M2829.22,585.87a26.93,26.93,0,0,1,22.25-6.19c12.27,2,19.18,13.07,17.36,24.43-2.1,13.15-16.12,26.87-48.22,35.61-27.78-18.31-36.82-35.71-34.72-48.86,1.81-11.36,11.83-19.77,24.11-17.81A27,27,0,0,1,2829.22,585.87Z"></path>
<path class="cls-18" d="M2726.9,574.84a276.57,276.57,0,0,0,30.63,8.36c3.13.66,8.36,2.73,11.09.51a3.36,3.36,0,0,0,1-4.5c-1.76-3.09-6.68-3.06-9.84-3.73-9.6-2.05-20.37-4.81-31.09-8.24a3.93,3.93,0,0,0-4.7,2.9,4,4,0,0,0,2.9,4.7Z"></path>
<path class="cls-18" d="M2882,633.66c4.58,1.05,9.17,2,13.77,3,4.39.94,9.42,2.82,13.9,2.21,3.31-.45,4.47-4.47,1.48-6.32-3.86-2.39-9.14-2.73-13.55-3.66-4.6-1-9.19-1.95-13.81-2.85-4.92-1-6.71,6.48-1.79,7.61Z"></path>
<path class="cls-18" d="M2756.36,644.08c7.84-8.43,15.5-9.9,21.66-12.46a3.16,3.16,0,0,0-1-6.15c-10-.56-20,6.3-26.38,13.33-3.37,3.7,2.3,9,5.73,5.28Z"></path>
<path class="cls-18" d="M2804.06,679.74a34.72,34.72,0,0,1,5.27-13.31c1.65-2.48,8.75-8.85,3.67-11.43-4.79-2.43-9.33,5.33-11.31,8.59a41,41,0,0,0-5.27,14.35c-.82,5,6.76,6.79,7.64,1.8Z"></path>
<path class="cls-18" d="M2849.25,659.26l6.45,7.21c2.14,2.4,4,5.62,7.51,5.67,2,0,3.13-1.72,3.28-3.47.28-3.19-3.39-5.9-5.37-8.08l-6.49-7.17c-1.44-1.59-4.26-1.25-5.62.23a4.06,4.06,0,0,0,.24,5.61Z"></path>
<path class="cls-18" d="M2803.73,550.89c-4.67-25.57-4.45-25.65-6-28a3.46,3.46,0,0,0-6.22,1.05c-.63,2.89-.48,2.42,4.53,29.3.4,2.14,3.12,3.26,5,2.67,2.28-.7,3.06-2.88,2.66-5Z"></path>
<path class="cls-18" d="M2845.67,559.7a59.49,59.49,0,0,0,5.9-11.33c1.45-3.71,4.17-9.19,1.18-12.64a3,3,0,0,0-3-.67c-3.74,1.5-4.2,6.88-5.55,10.29a70.84,70.84,0,0,1-5.43,10.71,3.92,3.92,0,0,0,1.61,5.26,4,4,0,0,0,5.26-1.62Z"></path>
<path class="cls-18" d="M2904,576.36c1.08-1.64,0-3.64-1.4-4.58-2.89-1.94-7.71.23-10.71,1.22a68.22,68.22,0,0,0-10.09,4.35c-1.88,1-2.28,3.74-1.21,5.42,1.25,2,3.5,2.12,5.42,1.2C2898.49,578,2901.31,580.4,2904,576.36Z"></path>
</g>
<g>
<g>
<path class="cls-12" d="M2715.48,864.16c-.3-.33-30.55-33.09-88.2-53.07-82.28-28.52-222.94,3.84-265.17-86.61-7.54-16.14-8-28.8-8-29.33a1.46,1.46,0,0,1,2.92-.07h0c0,.12.43,12.68,7.75,28.29,41.46,88.45,180.68,56.27,263.42,85,41.39,14.34,75.47,38.53,89.41,53.86A1.47,1.47,0,0,1,2715.48,864.16Z"></path>
<path class="cls-12" d="M2714.27,848.63c-1.15-1.23-28.63-30.48-80-48.38-56-19.58-141.89-14.31-193.65-37.18-31.44-13.89-46.87-33.92-54.28-48.27-8.07-15.62-8.64-27.79-8.66-28.31a1.46,1.46,0,0,1,2.92-.11c0,.18.62,12.19,8.41,27.21,7.2,13.89,22.21,33.29,52.8,46.8,51.22,22.64,137,17.35,193.42,37.1,52.06,18.14,80,47.9,81.19,49.16a1.46,1.46,0,0,1-2.14,2Z"></path>
<path class="cls-12" d="M2713,833.09c-12.25-13.22-37.54-31.64-71.81-43.68-54.07-19.1-127.44-18.23-173.65-37.35-32.91-13.62-49.2-33-57.07-46.88-8.58-15.1-9.3-26.85-9.33-27.34a1.46,1.46,0,0,1,2.92-.16h0c0,.11.75,11.67,9,26.21,7.65,13.42,23.51,32.2,55.56,45.46,23.33,9.66,53.52,14.12,85.48,18.84,30.19,4.45,61.41,9.06,88,18.46,34.77,12.22,60.5,31,73,44.46A1.46,1.46,0,0,1,2713,833.09Z"></path>
<path class="cls-12" d="M2711.82,817.56c-52.46-56.65-158.16-53.87-217.27-76.52-34.44-13.19-51.58-31.95-59.9-45.36-9.07-14.64-9.92-26-10-26.5a1.46,1.46,0,0,1,2.92-.2c0,.21.9,11.33,9.62,25.32,8.09,13,24.78,31.15,58.35,44,58.91,22.57,165.07,19.7,218.37,77.26a1.46,1.46,0,1,1-2.14,2Z"></path>
</g>
<g>
<path class="cls-13" d="M2484.36,703.25h0c-4.86-5-11.06-19.71-14.77-28.48-5-11.78-4.37-9.36-6.25-10.3-3.93-.77-3.7-1-34.73,63.22-13.06-16.92-47.17-9.51-47,10.23.11,10.2,10.92,19.26,25.43,19.11,10.09-.1,19.12-4.77,23-11.88h0c1-1.88,14.51-29.78,25.62-52.38,4,14.89,21.58,25.67,32.49,18.4l3.3-2.2-3.37-2.1A30.87,30.87,0,0,1,2484.36,703.25Z"></path>
<path class="cls-13" d="M2687.06,763.54h0c-6-1.67-17.3-10.18-24.08-15.26-7.16-5.37-7.91-5.93-9.67-5.18-3.72,1.27-3.5,1.34,1.39,64.17-17.87-6.71-40.63,14.3-31.53,29.54,9.62,16.12,41.61,3.69,41.11-16.35h0c-.06-1.91-2.17-29.22-3.72-51.17,9.95,9.28,28.06,9.55,33.22-1l1.74-3.57C2690.92,764.42,2692.88,765.21,2687.06,763.54Z"></path>
<path class="cls-13" d="M2589.88,764.44c-.09-2.65-2.16-31.61-4.67-67.16-37.37,4.13-36.08,4.5-70.53-.82,1.23,18.27,2.57,36.63,3.7,51.39-18.14-6.82-40.51,14.49-31.53,29.53,9.69,16.24,41.61,3.59,41.11-16.34h0c-.06-1.83-1.33-17.92-3.16-43.27l53,.33c.57,7.84,1.35,18.1,2.52,33.15-18-6.78-40.54,14.43-31.53,29.53,5,8.32,17.78,9.84,28.57,3.41,7.8-4.66,12.73-12.42,12.54-19.75Z"></path>
</g>
</g>
<path class="cls-11" d="M3751.69,1720.91H691A10.88,10.88,0,0,1,680.14,1710h0A10.88,10.88,0,0,1,691,1699.16H3751.69a10.87,10.87,0,0,1,10.87,10.88h0A10.87,10.87,0,0,1,3751.69,1720.91Z"></path>
<path class="cls-9" d="M3430.9,1113.4c7.07,12,19.7,11.53,33.25,14.91,9.1,2.26,14.7,17.23,13.83,28.55-2.21,28.68,20.27,23.81,38.35,35.68,43.33,28.44,15.38,102.64-31.95,107.43-9.49,1-20.28-.59-28.69-5.31-6.73-3.78-11.51-8.63-19.14-11.33-16-5.65-33.72-7.61-46.47-19.87-18.25-17.56-3.13-26.13-7.84-38.91s-25-6.37-28.86-32.84c-4.18-28.64.4-53.32,11-67.54,17.48-23.54,48.18-25.14,59.38-18A21.73,21.73,0,0,1,3430.9,1113.4Z"></path>
<path class="cls-18" d="M3232.06,1167.13c1.68-3.55,16.66,7,20,5s-13.42-18.88-11.71-21.83c3.14-5.44,19.48,17.36,21.08,15s-14.07-26.75-8.47-28.09,13.62,26.93,16.5,25.12-9.84-25.62-4.42-30.48c2.9-2.59,16.56,43.43,21.52,45.35s10.53-18.19,15.19-17.4-15.29,37-14.31,39.79,19.25,61.86,30,79.69c6.5-3.1,12.82-6.22,18.85-9.26,2.42,13.69,2.68,28.11,5.86,41.55-20.92,9.2-39.6,15.87-45.68,13.63-18.5-6.81-27.63-96.66-30.61-113.42s-10.88-20.07-15.39-28.88S3230.38,1170.69,3232.06,1167.13Z"></path>
<path class="cls-16" d="M3386.82,1242.8l31,31.24s-40.92,22.2-75.64,37.45c-3.18-13.44-3.44-27.86-5.86-41.55C3365,1255.46,3386.82,1242.8,3386.82,1242.8Z"></path>
<path class="cls-5" d="M3200.35,1638.73a246.84,246.84,0,0,0-24.52,34.8c-.52,1-.72,6.71-1.23,7.75-21.14,13.91-43.55,10-61.94,4.32,12.11-5.24,29-11.31,30.55-13.85,2.51-4,14.05-18.67,25.94-45C3178.62,1636.2,3187.56,1635.11,3200.35,1638.73Z"></path>
<path class="cls-6" d="M3175.61,1674.3c1.85,8.44,1.11,25.58-.57,26-2,.45-73,10.94-82.08,1.82-5.47-5.48,4.85-9.69,19.7-16.47C3131.05,1691.33,3174.93,1680,3175.61,1674.3Z"></path>
<path class="cls-8" d="M3463.11,1423.31s5.31,14,6,21.55c2.17,24.58-10.54,55.82-24.23,60.6-14,4.9-100.29,29-152.25,21.65L3180,1677.21l-37.54-16.48,87.94-154.44s16.95-26.6,30.89-32.85S3388.5,1437,3388.5,1437L3406,1411.5Z"></path>
<path class="cls-19" d="M3371.55,1267.7a230.53,230.53,0,0,1,12.64-20.65c6.45-11.52,23.13-17.34,23.13-17.34s5.58.11,12,.43a5,5,0,0,0,1.21,2.13c2.4,1.81,16.2-.53,25.11,5.54,29.87,25.7,21.62,150.23,19.26,189.56l-72.56,2.67s-6.94-86.44-25.43-108.18C3354,1306.72,3362.32,1284.77,3371.55,1267.7Z"></path>
<path class="cls-5" d="M3412.56,1187.58s5,35.83,8.49,44.54-19.2,27.33-38.09,33,5.77-19.23,5-28.54-4.22-53.39-4.22-53.39Z"></path>
<path class="cls-6" d="M3384.69,1195.81c-.55-7.28-1-12.64-1-12.64l28.83,4.41s.73,4.21,1.53,10.16C3402.4,1204.54,3391.9,1202.4,3384.69,1195.81Z"></path>
<path class="cls-5" d="M3403.52,1122.13a32.71,32.71,0,0,1,18.38,13.3c7,10.75,11.82,42.36-11.28,57.13s-41.07-6.12-41.37-26.49S3373.3,1118.54,3403.52,1122.13Z"></path>
<path class="cls-5" d="M3364,1159.7c2,4.91,5.88,8,8.74,6.81s3.56-6.07,1.59-11-5.88-8-8.73-6.81S3362,1154.79,3364,1159.7Z"></path>
<path class="cls-5" d="M3422.26,1163.74c-1.67,5.29-.14,10.5,3.43,11.64s7.81-2.23,9.49-7.53.14-10.5-3.43-11.64S3423.94,1158.45,3422.26,1163.74Z"></path>
<g>
<path class="cls-9" d="M3326.57,1281.3s-7.77.21-10,0c-12.74-1.23-7.45,17.6-7.45,17.6s6.22-6.1,8.71-6.1a38.51,38.51,0,0,1,6,.68Z"></path>
<path class="cls-10" d="M3283.42,1407.06s-5.24,8.16-11.13,4.49-16.07-10.77-18-5.42-1.53,9.81.53,10.88,17.27,9.34,25.5,9.9,15.08-7.25,15.08-7.25Z"></path>
<path class="cls-6" d="M3271.12,1425.51c.26-6.45,1.54-13.59,5.06-19.68,9-15.59,47.07-57.6,52.73-60.86s1.58-15.92,1.58-15.92l22.56-12.18,11.75-6.35s26.64,40.66,28.68,44.5-1.58,16.41,1.12,24.14-.1,49.7,3.72,54.31c3,3,5.77,3.41,6.69,5.2a3.1,3.1,0,0,1-.14,3.58c-3.06,3.92-18.68.63-18.68.63-.11-.24-6.54-9.28-5.54-14.66,1-5.2-2.19-36.52-4.34-36.52-1.9,0-10.89,13.92-14.48,16.57v0a2,2,0,0,1-1,.45c-2.59,0-19.25,3.67-22.92,7.34-1,1-1.37,3.62-1.39,6.93-.05,2.2.07,4.7.26,7.24.36,4.65,1,9.42,1.47,12.56q-5.94,0-11.9,0c-3.26-5.89-10.14-9.94-18.1-9.94-7.5,0-14,3.6-17.5,8.93-6.65-.36-9.23,2.89-14.93,2.34C3275.51,1442.18,3271,1428.05,3271.12,1425.51Z"></path>
<path class="cls-10" d="M3324.3,1283.12a11.16,11.16,0,0,1,9.45-2.91,33.14,33.14,0,0,0,8.25.13c8.27-.75,16.78-.07,22.12,5.27s6,24.4,0,33.35-23,11.21-24.54,15.28-16.25,6-18.36,1a4.91,4.91,0,0,1-3.91.42c-5.52-1.56-7.53-7-5.57-12.91s10.23-17.92,8.72-28.76A12.25,12.25,0,0,1,3324.3,1283.12Z"></path>
<path class="cls-11" d="M3327.77,1319.8a2.67,2.67,0,0,1,.09,3.6c-1.77,2-4.79,5.34-7,6.59-3.27,1.88-6.39-6.08-6.39-9.64C3314.49,1316.94,3322,1313.87,3327.77,1319.8Z"></path>
<path class="cls-10" d="M3331.14,1376.94a3.1,3.1,0,0,1,3.27-3h.06c8.78.54,14.83,8.53,13.68,17.26a3.35,3.35,0,0,0,0,1.27c.33,1.54,2.93,6.71,5.71,12l-15.79,4c-3.86-6.69-7.69-12.92-7.69-12.92Z"></path>
<path class="cls-10" d="M3361.11,1417.79s6,17.9,7.68,24.73c-4.82,2.78-7.74-2.66-18.67.34-.29-2.14-4.14-15.42-4.14-18.67,0-1.59-4.85-9.06-8.71-15.64a.88.88,0,0,1,.52-1.28c4.78-1.33,10.84-3.78,15.62-5.1a1.3,1.3,0,0,1,1.52.66A140.08,140.08,0,0,1,3361.11,1417.79Z"></path>
<path class="cls-10" d="M3373.22,1440.77a10.74,10.74,0,0,0-9.79-5.56c-5.13,0-13.31,7.65-13.31,7.65s2.43,2.37,9.12,2.37S3375.53,1445.75,3373.22,1440.77Z"></path>
<path class="cls-10" d="M3343.08,1439.7c-1.18-2.56-4.66-5.56-9.79-5.56-1.92,0-4.27,1.07-6.46,2.42a4.1,4.1,0,0,0,2.07,7.6h.2C3335.78,1444.16,3345.39,1444.67,3343.08,1439.7Z"></path>
<path class="cls-10" d="M3295,1439.7c-1.42-2.56-5.61-5.56-11.78-5.56-2.31,0-5.14,1.07-7.77,2.42-4.2,2.14-2.44,7.57,2.49,7.6h.24C3286.21,1444.16,3297.78,1444.67,3295,1439.7Z"></path>
<path class="cls-11" d="M3346.54,1287c2.43-2.42.92-5.27-.4-6.94,6.88-.15,13.53,1.06,18,5.51,5.35,5.35,6,24.4,0,33.35-5.4,8-19.67,10.68-23.62,14.08-4.08-7,2.17-12.8,3.64-16.08s-7.34-11.51-8.36-18.06S3342.86,1290.73,3346.54,1287Z"></path>
<path class="cls-10" d="M3358.13,1281.81a19.67,19.67,0,0,0,12-.53c6.7-2.37,13.36,9.6,13.36,9.6s-6.21,13.44-11.18,16.71S3358.13,1281.81,3358.13,1281.81Z"></path>
</g>
<path class="cls-5" d="M3273,1396.12c0-3,9.13-11.58,13.52-10.19s21.53,12.19,21.53,12.19l76.38-18s19.28-44,21.17-81.72c15.93,2.16,26.78,6.11,40.63,13.83-6.68,36.11-22.91,94.65-40.86,105.64-7.55,4.62-97.7-5.53-97.7-5.53s-18.74,2.62-23.4,1.34C3265.14,1408.43,3273,1402.12,3273,1396.12Z"></path>
<path class="cls-16" d="M3405.11,1258.08c2.36-11.4,5.12-22.84,17.44-26.45,7.64-2.24,16.21-.1,22.31,4.9,7.26,6,9.29,15.5,9.26,24.53-.08,20.51-1.47,41.78-5.21,62-13.85-7.71-34-6.83-49.95-9C3397.47,1295.79,3402,1272.94,3405.11,1258.08Z"></path>
<g>
<g>
<polygon class="cls-16" points="2568.82 1699.19 2495.96 1530.97 2504.72 1527.18 2578.81 1699.19 2568.82 1699.19"></polygon>
<polygon class="cls-19" points="2388.07 1699.19 2376.97 1699.19 2479.64 1526.63 2487.84 1531.51 2388.07 1699.19"></polygon>
<polygon class="cls-16" points="2481.17 1699.19 2408.31 1530.97 2417.06 1527.18 2490.69 1699.19 2481.17 1699.19"></polygon>
<polygon class="cls-16" points="2543.93 1449.85 2439.71 1449.85 2478.42 1363.99 2584.12 1363.99 2543.93 1449.85"></polygon>
<polygon class="cls-19" points="2475.73 1699.19 2464.63 1699.19 2567.3 1526.63 2575.49 1531.51 2475.73 1699.19"></polygon>
<path class="cls-10" d="M2585.16,1533.41H2391.81a19.09,19.09,0,0,1,19.09-19.08h155.18a19.08,19.08,0,0,1,19.08,19.08Z"></path>
<path class="cls-6" d="M2585.16,1533.41h-92.11a19.08,19.08,0,0,1,19.08-19.08h53.95a19.08,19.08,0,0,1,19.08,19.08Z"></path>
</g>
<path class="cls-5" d="M2683.33,1244.73c-.39-1-1.33-.21-2.5,1.54,1.51-6.33,1.31-14.27.11-15-1.47-.87-2.31,10.2-5.58,16.19s-6.23,13.39-6.69,13.07c-.72-.52,3.84-8.59,7.06-14.74s.76-34.45-2.24-14.17-22.61,35.78-23.18,29.56,2.72-15.64-1.32-14.26-5.22,15.3-8.77,25.38c-.41,1.16-.46,4.72-.43,8.9a5.15,5.15,0,0,1-3.39,4.87l-58.49,21.27-8.49-52.51-57.5,12.91s13.85,72.12,45.87,79.35c12.79,2.89,79.57-34.62,101.45-53.08C2680.9,1275.77,2685,1249.17,2683.33,1244.73Z"></path>
<path class="cls-16" d="M2542.94,1206.32c13.43,6.42,58.55,72.56,58.55,72.56l-41.85,39.31-27-39.31S2526.4,1198.43,2542.94,1206.32Z"></path>
<path class="cls-10" d="M2544.52,1120.44c-2.86-17.29-5.84-34.65-22.53-47.88-13.5-10.7-30.2-13-46.41-8.2-45.91,13.74-17.48,40.17-78.2,69.44-62.79,30.26-49.2,88.4-30.75,106.39,88.31,86.07,166.14-14.6,171.8-41.23C2542.64,1179.16,2546.36,1131.58,2544.52,1120.44Z"></path>
<path class="cls-16" d="M2439.11,1199.65s-7.47-.34-27.59,8.86-63.26,69-63.26,69l35.13,27.35,60.19-39.37S2451.22,1199.65,2439.11,1199.65Z"></path>
<path class="cls-19" d="M2546.57,1397.34c-20.71,11-100.4,9.22-100.4,9.22-2-20.71-8.76-73.39-13.37-117.94-5.8-31,0-42.67,6.31-89,0-.31,32.13-2.54,32.13-2.54l33.4.82s29.06,2.34,38.3,8.39c.64.42,4.31,52.74,1.44,89.81-2,25.28-4.83,45.68-4.65,62.39C2540,1382.8,2546.57,1397.34,2546.57,1397.34Z"></path>
<path class="cls-3" d="M2445.15,1396.6l-53.37,101.84s89.4,24.63,141.94,17.61l45.61-63.94-32.76-54.77Z"></path>
<path class="cls-11" d="M2435.65,1479.3s-63.77-30.4-96.78-3.86-23.39,46.43-20.61,55.87c5.32,18,53.1,3.1,91.93-11.13S2467.36,1487.06,2435.65,1479.3Z"></path>
<path class="cls-18" d="M2335.12,1465.87a19.29,19.29,0,0,0-8.36,22.82c3.26,9.8,86.28,89.8,114.92,116.8,22.34,21.06,53.76,55.84,62.58,65s44.38,35,45.94,34.27c4.25-2,4.39-11.28-1.64-18.5s-12.2-9.26-19.2-30-18.59-16-24.08-16-127-173.79-127-173.79S2354.58,1453.64,2335.12,1465.87Z"></path>
<path class="cls-10" d="M2529.36,1656.29c-7-20.71-18.59-16-24.08-16,0,0,30.08,44.47,26.93,52.73,9.26,6.76,17.27,12.11,18,11.77,4.25-2,4.39-11.28-1.64-18.5S2536.36,1677,2529.36,1656.29Z"></path>
<path class="cls-3" d="M2438.88,1408.75s-83.36,24.38-104.54,38c-39.75,25.65-21.7,72.82-16.08,84.51,0,0,8.45-41.6,44.69-47.42l-3-5.89Z"></path>
<path class="cls-4" d="M2539.85,1421.05s-141.74-38.19-194.81,11c0,0-24.87,22.84-15.8,50,5.13,15.39,22,5.94,22,5.94s67.22-25.11,87.28-18,72.81,48.52,95.25,46C2568.67,1512.17,2618.81,1449.53,2539.85,1421.05Z"></path>
<path class="cls-5" d="M2461.89,1495.81c-6.68-13.51-23.25-44.6-44.36-51s-38.51,4-39.29,21.67c-.47,10.34,115.65,164.35,119.45,173.78s28,36.14,36.87,42.3,22.65,21.06,25.82,19.49,1.27-15.71-7.08-24.55-11.94-32.47-14-41.44-.62-14.91-15.91-14.86C2516,1621.23,2477.38,1527.09,2461.89,1495.81Z"></path>
<path class="cls-19" d="M2553.14,1270.67c-.65,19.77-26.15,38.8-62.39,38.8s-65.63-16-65.63-35.81,24.08-47.61,60.32-47.61S2554,1245.6,2553.14,1270.67Z"></path>
<path class="cls-5" d="M2479.05,1148s-.71,5-1.79,11.94c-2,12.66-3,33.43-5.53,39.75-2.23,5.56,10,59.41,17.64,45.38,14.5-26.63,16.79-35.31,17.36-42.15s2.4-30,3.61-45.4c.66-8.36,1.13-14.46,1.13-14.46Z"></path>
<path class="cls-6" d="M2510.4,1157.23c.62-8.18,1.07-14.18,1.07-14.18l-32.42,4.94s-.82,4.72-1.72,11.4C2490.47,1167,2502.29,1164.61,2510.4,1157.23Z"></path>
<path class="cls-5" d="M2489.22,1074.6a36.84,36.84,0,0,0-20.68,14.92c-7.89,12-13.3,47.5,12.69,64s46.2-6.86,46.54-29.69S2523.21,1070.57,2489.22,1074.6Z"></path>
<path class="cls-5" d="M2533.72,1116.73c-2.22,5.51-6.62,8.93-9.83,7.64s-4-6.81-1.79-12.31,6.61-8.93,9.82-7.64S2535.94,1111.22,2533.72,1116.73Z"></path>
<path class="cls-10" d="M2493.05,1073.85s-16.3,36.55-30.61,39.81-14.11,21.66-14.11,21.66.32-42.47,13.74-52.21S2493.05,1073.85,2493.05,1073.85Z"></path>
<path class="cls-5" d="M2468.13,1121.26c1.88,5.94.16,11.78-3.85,13.06s-8.8-2.51-10.68-8.45-.16-11.78,3.85-13S2466.24,1115.33,2468.13,1121.26Z"></path>
<g>
<rect class="cls-20" x="2707.64" y="1202.02" width="45.67" height="3.6" transform="translate(2452.67 -1767.29) rotate(60.87)"></rect>
<rect class="cls-21" x="2706.98" y="1203.14" width="45.67" height="2.09" transform="translate(2452.65 -1766.52) rotate(60.87)"></rect>
<rect class="cls-20" x="2692.87" y="1209.95" width="44.66" height="3.6" transform="translate(2451.72 -1749.88) rotate(60.87)"></rect>
<rect class="cls-21" x="2692.47" y="1210.64" width="44.66" height="2.67" transform="translate(2451.71 -1749.41) rotate(60.87)"></rect>
<rect class="cls-20" x="2677.17" y="1218.71" width="44.66" height="3.6" transform="translate(2451.27 -1731.66) rotate(60.86)"></rect>
<rect class="cls-21" x="2676.55" y="1219.75" width="44.66" height="2.19" transform="translate(2451.25 -1730.95) rotate(60.86)"></rect>
<path class="cls-6" d="M2438,1476c14.2-12.88,23.06-39.66,28.36-50.46,0,0,6.93-14.12,27.75-14.45a61.58,61.58,0,0,0,54.57-36.56c10.58-23.83-15.16-59.72-15.16-59.72l-1.11-2s-17-40.76-42.83-44.3a61.59,61.59,0,0,0-59.8,27.18c-11.23,17.53-26.87,16-26.87,16-12-1.17-39.42-7.72-57.84-2.41-17.22,5-30.9,17.65-39.24,33.68-9.06,17.39-10.58,41.2,2.46,71.09.71,1.61,7.59,15.67,9.88,19.48,2,4,10.38,17.21,11.37,18.65,18.57,26.81,39.62,38,59.18,39.49C2406.74,1493,2424.73,1488,2438,1476Z"></path>
<path class="cls-10" d="M2484.9,1385.14c-17,9.45-38.92,2.35-49.07-15.85s-4.63-40.62,12.33-50.07,38.91-2.35,49.06,15.85S2501.85,1375.69,2484.9,1385.14Z"></path>
<path class="cls-9" d="M2478.46,1373.59c-11,6.14-25.28,1.53-31.87-10.3s-3-26.38,8-32.52,25.28-1.53,31.88,10.3S2489.47,1367.45,2478.46,1373.59Z"></path>
<path class="cls-22" d="M2744.09,1171.24,2683.31,1209c-.69,2.79-7.41,9.51-7.41,9.51l12.91,23.18s9.26-2.19,12-1.3l64-31.86,0-.32a38.89,38.89,0,0,0-20.78-36.93Zm-55.37,46h0a6.25,6.25,0,0,1,1.77-8.62l35.44-21.77a6.17,6.17,0,0,1,8.43,2.36h0a6.26,6.26,0,0,1-1.77,8.62l-35.44,21.77A6.18,6.18,0,0,1,2688.72,1217.19Zm53.1-1.88-37.16,18.7a6.26,6.26,0,0,1-8.26-3h0a6.18,6.18,0,0,1,2.43-8.41l37.16-18.69a6.26,6.26,0,0,1,8.26,3h0A6.16,6.16,0,0,1,2741.82,1215.31Z"></path>
<path class="cls-11" d="M2486.47,1341.07a25.27,25.27,0,0,1,2.42,19l199.92-118.47-12.91-23.18-207.2,109.87A25.11,25.11,0,0,1,2486.47,1341.07Z"></path>
<rect class="cls-10" x="2333.7" y="1391.53" width="99.4" height="14.8" transform="translate(2445.02 -1364) rotate(60.87)"></rect>
<path class="cls-11" d="M2682.8,1203.56l0,0a2,2,0,0,1,.79-2.76l7.38-4.12a2,2,0,0,1,2.76.79l0,0a2,2,0,0,1-.78,2.76l-7.38,4.11A2,2,0,0,1,2682.8,1203.56Z"></path>
<path class="cls-11" d="M2698.57,1194.76l0,0a2,2,0,0,1,.78-2.76l7.38-4.12a2,2,0,0,1,2.76.79l0,0a2,2,0,0,1-.79,2.76l-7.37,4.11A2,2,0,0,1,2698.57,1194.76Z"></path>
<path class="cls-11" d="M2713.23,1185.73l0,0a2,2,0,0,1,.79-2.77l7.38-4.11a2,2,0,0,1,2.76.79l0,0a2,2,0,0,1-.78,2.76l-7.38,4.12A2,2,0,0,1,2713.23,1185.73Z"></path>
<path class="cls-11" d="M2736.14,1226.83l0,0a2,2,0,0,1,.79-2.77l7.37-4.11a2,2,0,0,1,2.77.79l0,0a2,2,0,0,1-.78,2.76l-7.38,4.12A2,2,0,0,1,2736.14,1226.83Z"></path>
<path class="cls-11" d="M2720.87,1234.76l0,0a2,2,0,0,1,.79-2.76l7.38-4.12a2,2,0,0,1,2.76.79l0,0a2,2,0,0,1-.78,2.76l-7.38,4.11A2,2,0,0,1,2720.87,1234.76Z"></path>
<path class="cls-11" d="M2705.5,1243.33l0,0a2,2,0,0,1,.78-2.76l7.38-4.11a2,2,0,0,1,2.76.78l0,0a2,2,0,0,1-.79,2.76l-7.37,4.11A2,2,0,0,1,2705.5,1243.33Z"></path>
<polygon class="cls-2" points="2688.81 1241.64 2675.9 1218.47 2673.27 1219.87 2686.26 1243.16 2688.81 1241.64"></polygon>
<polygon class="cls-2" points="2671.05 1252.17 2657.66 1228.14 2656.55 1228.73 2669.97 1252.81 2671.05 1252.17"></polygon>
<polygon class="cls-2" points="2654.77 1261.82 2640.94 1237.01 2639.84 1237.59 2653.69 1262.45 2654.77 1261.82"></polygon>
<polygon class="cls-2" points="2640.91 1270.03 2626.71 1244.56 2625.61 1245.14 2639.83 1270.67 2640.91 1270.03"></polygon>
<polygon class="cls-2" points="2627.05 1278.25 2612.48 1252.1 2611.38 1252.69 2625.98 1278.88 2627.05 1278.25"></polygon>
<polygon class="cls-2" points="2614.27 1285.82 2599.35 1259.06 2598.25 1259.65 2613.19 1286.46 2614.27 1285.82"></polygon>
<polygon class="cls-2" points="2601.49 1293.39 2586.23 1266.02 2585.12 1266.61 2600.41 1294.03 2601.49 1293.39"></polygon>
<polygon class="cls-2" points="2590.68 1299.8 2575.13 1271.91 2574.02 1272.49 2589.6 1300.44 2590.68 1299.8"></polygon>
<polygon class="cls-2" points="2579.87 1306.21 2564.03 1277.79 2562.92 1278.38 2578.79 1306.85 2579.87 1306.21"></polygon>
<polygon class="cls-2" points="2569.42 1312.4 2553.3 1283.48 2552.19 1284.07 2568.34 1313.04 2569.42 1312.4"></polygon>
<polygon class="cls-2" points="2559.64 1318.19 2543.26 1288.81 2542.15 1289.39 2558.56 1318.83 2559.64 1318.19"></polygon>
<polygon class="cls-2" points="2550.4 1323.67 2533.77 1293.84 2532.67 1294.42 2549.32 1324.31 2550.4 1323.67"></polygon>
<polygon class="cls-2" points="2533.72 1333.56 2516.64 1302.92 2515.54 1303.51 2532.64 1334.19 2533.72 1333.56"></polygon>
<polygon class="cls-2" points="2525.56 1338.39 2508.26 1307.36 2507.16 1307.95 2524.48 1339.03 2525.56 1338.39"></polygon>
<polygon class="cls-2" points="2518.92 1342.33 2501.45 1310.98 2500.34 1311.56 2517.84 1342.96 2518.92 1342.33"></polygon>
<polygon class="cls-2" points="2511.92 1346.48 2494.26 1314.79 2493.15 1315.38 2510.84 1347.11 2511.92 1346.48"></polygon>
<rect class="cls-1" x="2724.44" y="1191.31" width="1.97" height="5.73" transform="translate(2440.18 -1767.69) rotate(60.84)"></rect>
<rect class="cls-1" x="2733.81" y="1208.51" width="1.34" height="5.11" transform="translate(2462.96 -1767.25) rotate(60.9)"></rect>
<rect class="cls-1" x="2709.64" y="1199.66" width="1.5" height="6.15" transform="translate(2443.96 -1750.53) rotate(60.92)"></rect>
<rect class="cls-1" x="2718.16" y="1216.42" width="2.06" height="5.53" transform="translate(2460.33 -1749.56) rotate(60.87)"></rect>
<rect class="cls-1" x="2693.72" y="1208.12" width="1.7" height="5.31" transform="translate(2439.85 -1732.31) rotate(60.86)"></rect>
<polygon class="cls-1" points="2702.8 1231.41 2702.31 1230.53 2706.59 1228.15 2707.08 1229.03 2702.8 1231.41"></polygon>
<polygon class="cls-2" points="2542.42 1328.4 2525.58 1298.18 2524.47 1298.77 2541.34 1329.04 2542.42 1328.4"></polygon>
</g>
<path class="cls-5" d="M2455.83,1391.68c-.21.5,7,2.06,13.55,3.94s17.31,1.9,16.8,3.47c-.38,1.23-7,2-13.1,1.48,1.53.65,2.23,1.28,1.42,1.79-3.32,2.13-22.37.94-39.87-6.5s-119.34-63.36-109-79.1c3.79-5.78,20.11-22.48,29.43-34l26.67,20.77-13.73,15c21,22.52,53.24,47,54.9,48.14,4.45,3.2,13,.44,15,.39,10.62-.28,24.27-.4,26.54,3.15s-7.59,2.35-13.46,4.16,13.64,17.25,33.92,16-2.65,7.77-9.34,6S2456.17,1390.88,2455.83,1391.68Z"></path>
<path class="cls-5" d="M2683.33,1244.73c-.39-1-1.33-.21-2.5,1.54,1.51-6.33,1.31-14.27.11-15-1.47-.87-2.31,10.2-5.58,16.19s-6.23,13.39-6.69,13.07c-.72-.52,3.84-8.59,7.06-14.74s.76-34.45-2.24-14.17-22.61,35.78-23.18,29.56,2.72-15.64-1.32-14.26-5.22,15.3-8.77,25.38c-.41,1.16-.46,4.72-.43,8.9a5.15,5.15,0,0,1-3.39,4.87l12.45,15.83c4.06-2.85,7.6-5.53,10.39-7.89C2680.9,1275.77,2685,1249.17,2683.33,1244.73Z"></path>
<path class="cls-6" d="M2539.75,1686.6c8.3,7,18,16.74,20.63,15.45,3.17-1.57,1.27-15.71-7.08-24.55s-11.94-32.47-14-41.44-.62-14.91-15.91-14.86a1.14,1.14,0,0,1-.45-.11h0s22.13,60.19,16.81,65.5Z"></path>
</g>
<g>
<path class="cls-5" d="M2919.83,1662.55s1.56,13.4,1.56,15.67v2.27l-1.12,2.31-.44.92,8,11.25s32.18.48,32.9.48-4.31-7.78-4.31-7.78-10.65-8-12.56-13.64,1.62-17.34,1.62-17.34Z"></path>
<path class="cls-5" d="M2764.71,1582.37s-11.47,7.11-13.25,8.53l-1.78,1.41-1.12,2.31-.44.92-13.79.71-20.83-25.47c-.45-.56,5.86.84,5.86.84s12.87,1.74,18.46-.25,16.91-13.15,16.91-13.15Z"></path>
<path class="cls-10" d="M2868.87,1456.65,2745.4,1561.81l19,26.92s121.16-76.14,127.8-77,17.07,1.44,18.32,6.29,5.13,148.29,5.13,148.29h33l17.19-183Z"></path>
<g>
<path class="cls-5" d="M3046.74,1306.67c9.14-6,30.6-29,37.86-36.86.08-.92.77-6.24,6.62-13,4.13-4.78,7.25-15.69,10-12.6s-4,11.76-.93,11.81,18.34-17.1,20.79-14.3-13.05,18.06-10.29,18.11,15.33-15.4,18.8-11.44-16.49,16.81-14.63,18.93,14.23-6.29,17-3.11-17.45,10.71-15.83,10.74,13.3-.29,13.39,2c.1,2.54-29.55,6.5-33.18,10.9h0c-7.75,12.33-21.54,34.86-35.5,44.74-17.08,12.1-56.57,37.75-56.57,37.75L2984.64,1345S3035.91,1313.77,3046.74,1306.67Z"></path>
<path class="cls-18" d="M3100.25,1261.47a12.2,12.2,0,0,1,1.19,4.76,11.87,11.87,0,0,1-3.86,9.59C3099.34,1272.54,3101.28,1268.91,3100.25,1261.47Z"></path>
</g>
<g>
<path class="cls-5" d="M2865.74,1279c-7.25-8.17-21.94-36-26.91-45.47.17-.91.89-6.24-3-14.3-2.73-5.69-2.9-17-6.32-14.76s.8,12.4-2.19,11.65-13.23-21.31-16.33-19.25,7.87,20.84,5.21,20.17-10.78-18.87-15.17-16,11.53,20.53,9.18,22.09-12.09-9.79-15.62-7.45,14,14.89,12.47,14.5-12.76-3.75-13.43-1.61c-.76,2.43,26.82,14,29.18,19.2h0c4.25,13.93,11.66,39.28,22.56,52.47,13.32,16.14,44.72,51.23,44.72,51.23l25.56-19.33S2874.34,1288.63,2865.74,1279Z"></path>
<path class="cls-18" d="M2825.92,1221.33a12.1,12.1,0,0,0-2.4,4.28,11.9,11.9,0,0,0,1.22,10.27C2823.89,1232.25,2823,1228.24,2825.92,1221.33Z"></path>
</g>
<path class="cls-16" d="M2886.45,1297.66l-23,30.06,28.61,42.57s-2.69,31.63-6.81,41.5-28,50.43-28,50.43,58,35.53,114.67,30.32c0,0,16-82.19,20.46-90.08s47.74-47,47.74-47l-21-33.92-36.25,20.1s-66.26-10.71-69.45-13.9S2886.45,1297.66,2886.45,1297.66Z"></path>
<path class="cls-6" d="M2961.23,1236.16s-22.38-11.84-30,7.78c0,0-20.1-2-16.63,18.78,0,0-20.22,10.17-7.42,36.37,0,0-5.62,24.65,23.21,26.2,0,0,4.31,8.73,17.47,6.7s16.5-5.5,16.5-5.5,23.34,6.82,30.39-14.24c0,0,16-3.83,5.27-24.4,0,0,14-26.68-10.65-34.7C2989.34,1253.15,2986.47,1225.87,2961.23,1236.16Z"></path>
<path class="cls-5" d="M2970.26,1294c-1.82,5.07-.51,10.18,2.92,11.41s7.68-1.89,9.5-7,.51-10.18-2.92-11.41S2972.08,1288.89,2970.26,1294Z"></path>
<path class="cls-5" d="M2909.92,1281.51c-.26,5.38,2.49,9.88,6.13,10s6.79-4,7-9.43-2.48-9.89-6.12-10.06S2910.17,1276.12,2909.92,1281.51Z"></path>
<path class="cls-5" d="M2935.5,1317.16c0,.35-2.9,12.84-4.45,19.44a5.32,5.32,0,0,0,3,6c6.15,2.81,18.25,6.73,26.6-.85a3.46,3.46,0,0,0,1.14-2.71l-1-29.82Z"></path>
<path class="cls-18" d="M2934,1324.15c6.5,3.28,14.69,3.35,23.88-2a37.33,37.33,0,0,0,3.28-2.18l-.36-10.68-25.25,7.9C2935.5,1317.33,2934.82,1320.34,2934,1324.15Z"></path>
<path class="cls-5" d="M2953.41,1248.32A32,32,0,0,1,2970.9,1262c6.47,10.72,10,41.71-13.07,55.26s-39.94-7.44-39.5-27.29S2927.59,1244.68,2953.41,1248.32Z"></path>
<path class="cls-16" d="M2914,1703.2c-4.92-.62,3.57-17.66,6.3-20.4l36.17,4.87s17.41,8.08,21.54,12.2c1,1,1.1,2.7-3.15,3.33C2961.19,1705.23,2924.87,1704.58,2914,1703.2Z"></path>
<path class="cls-16" d="M2736.16,1612.5c4.24,2.55,12-14,12.4-17.88l-29.2-23s-22.53-6.46-27.08-1.91C2688.16,1573.84,2726.52,1606.71,2736.16,1612.5Z"></path>
</g>
<g>
<g>
<path class="cls-5" d="M872.23,1623.77s-10.68,10.6-10.92,14.5-.94,45.61,3.42,49.5,17.16,6.66,13,11c-3.11,3.31-27,2.6-42.9,1.71-4.63-.26-10.44-37.88-12.27-43.41-2.67-8-12.26-25.51-9.84-31.11,1.18-2.73,9.94-9,17.9-14.18,8.36-5.5,16.36-17.75,16.36-17.75Z"></path>
<path class="cls-5" d="M1015.05,1649.83s-9.55,27.49-9.57,27.56c-.71,4.35-3.5,15.11-3.5,19.07,0,14.87,65.85-12.63,51.09-19.22-1.33-.59-5.52-5.36-6-10.42-.68-7.8,5.55-17.58,5.55-17.58Z"></path>
<g>
<path class="cls-9" d="M1105.93,1127.92l23.85,62s15.55,148.07,6.49,236.72c-3.78,37.07-85.8,235.51-85.8,235.51l-40.74-5.84,54.57-235-20.08-89.87-28.41-177.64Z"></path>
<path class="cls-13" d="M993.61,1131.16l-20.46,69.09L942,1408.78,836.83,1603.84s15.82,24.41,32.81,28.25L1019,1434.94l80.94-246.82-2.84-54.83Z"></path>
</g>
<path class="cls-23" d="M1307.64,1016.13c-12.25,5.58-11,7.89-12.58,8.55-1.88.78-27.66-7.45-27.66-7.45s-76.11-23.66-80.19-25.12l-64-62-33.66,30.12s71,65.23,75.21,67.84,110,19.84,119.25,21.73c0,0,10.43,7.28,17.11,11.59s14.52,4.75,16.54,5.61a55.59,55.59,0,0,0,16.26,2.65c7.82.12.41-4.42.41-4.42s-14.48-3.45-14.08-4.8c.31-1.05,8.14,1.4,16.8,1.65,2.22.07,4.42.12,6.44.15,5.29.08,6.81-3.91,1.27-5.08a44.35,44.35,0,0,0-7.59-1c-2.56,0-4.92-1-7.07-1.47-4.28-.83-7.41-1.37-7.29-1.57s-.6-1.16,1.76-1.18c2.85,0,8.91,1.56,13.08,1.13,2.36-.25,7.34-.4,7.34-.4s8-1.33,8.08-1.91c.27-3.13-5.71-4.2-8.89-3.35-2.26-.73-7.48-.4-7.48-.4s-10.72-2.24-10.5-4.11c.18-1.54,26.64-2.27,26.73-5.43.07-2.59-7.9-2.81-7.9-2.81s-4.83.32-6.44.27c-1.89,0-7.54-.74-7.54-.74s-19.6-3.54-19.27-5.29,2.64-5.81,3.91-6.11,3.85.67,5.12.37a3.88,3.88,0,0,0,2.52-4c-.19-2-6.81-3.43-6.81-3.43S1311.17,1014.52,1307.64,1016.13Z"></path>
<path class="cls-19" d="M1146.25,945.81l-32,43.7s-28.3-34.08-41-51.2c-15.44-20.76-32.36-49.5-29.85-51.06,7.06-4.38,15.83-9,26.15-6.32C1105.23,890.26,1146.25,945.81,1146.25,945.81Z"></path>
<path class="cls-9" d="M831.17,1611.56s22.49,69.19,32.12,72.6c2.56.9,17,4.57,19.26,10.09a2.84,2.84,0,0,1,.15.49,5.74,5.74,0,0,1-5.74,6.74H831.27s-6.49-31.09-9-44.75c0,0-13.58-33.38-12.07-36.41S831.17,1611.56,831.17,1611.56Z"></path>
<path class="cls-9" d="M998.23,1701.37l7.35-24.27s16,6.83,23.95,5.69,23.38-5.69,23.38-5.69c31.61,10.6,57.51,15.74,52.8,24.27H998.23Z"></path>
<path class="cls-24" d="M1297.87,1037.3c5.87-.16,10.54-2.75,14-8.47C1310.57,1036.8,1303,1040.12,1297.87,1037.3Z"></path>
<path class="cls-16" d="M1001.78,879.62s-38.21,4.06-51,8.56C940.12,891.93,925.67,927,925.67,927s57.9,168.2,55.63,198.27-8.71,74.61-8.71,74.61,114,7.23,157.21-9.9c0,0-13.64-68.14-13.64-86s-7.66-196.72-13.11-206.09-16.44-14.69-37.27-19.26S1001.78,879.62,1001.78,879.62Z"></path>
<path class="cls-5" d="M1009.39,829.58l-7.61,50s22.88,26.51,39.47,21.35c13.91-4.34,10.25-24,10.25-24s-7.58-28.31-5.31-42.48S1009.39,829.58,1009.39,829.58Z"></path>
<path class="cls-24" d="M1046.19,834.5c2.28-14.17-36.8-4.92-36.8-4.92l-.63,4.15a23,23,0,0,0,4.24,7c8.72,9.38,22.37,15,34.17,15.44C1046,848.5,1045.26,840.31,1046.19,834.5Z"></path>
<g>
<path class="cls-5" d="M1003,758.77c-1.11-.4-8.86,57,5.85,72.8s43.35,21,53.63,8.52c11.37-13.76,10.8-75.45-12.07-91.7S1003,758.77,1003,758.77Z"></path>
<path class="cls-9" d="M1041.69,717.69a63.47,63.47,0,0,0-33.32,19c-8,1-18.93,5.38-30.19,24-13.85,22.88-3.62,48.24,12.49,60.68s15.91,26.77,15.91,26.77l2.54-7.4a41.45,41.45,0,0,0,2-17.5,34.2,34.2,0,0,0-2.61-10.53c-3.88-8.31,8.33-13.83,11.75-20.74,2.63-5.32,2.76-17.49,6.92-26.29l5-6.72s11.44-8.88,22.63-6.37S1064.36,713.07,1041.69,717.69Z"></path>
<path class="cls-5" d="M1019.53,802.14c.11,7-3.07,12.73-7.13,12.8s-7.43-5.55-7.54-12.55,3.07-12.74,7.12-12.81S1019.41,795.13,1019.53,802.14Z"></path>
</g>
</g>
<g>
<path class="cls-10" d="M1856.07,1699.16c-15.77-282.85-170.85-626.63-439.38-628.68-225-1.72-364,346-380.79,628.68Z"></path>
<path class="cls-10" d="M1647.8,1634.54H1118.16l232.61-565.78,176.47,55.16s53.94,50.51,79.07,143S1647.8,1634.54,1647.8,1634.54Z"></path>
<path class="cls-6" d="M1630.14,1699.16l-322.23-683.87L1499.35,1082s58.52,61,85.77,172.83S1630.14,1699.16,1630.14,1699.16Z"></path>
<polygon class="cls-11" points="1055.58 1699.16 1389.12 1187.64 1307.91 1015.29 1254.14 1101.03 1055.58 1699.16"></polygon>
<polygon class="cls-7" points="1866.39 1669.42 1587.21 1222.25 1593.07 1218.68 1876.36 1669.42 1866.39 1669.42"></polygon>
<g>
<polygon class="cls-11" points="1884.03 1614.77 1883.27 1699.16 1874.87 1699.16 1859.52 1614.54 1866.43 1614.6 1884.03 1614.77"></polygon>
<path class="cls-3" d="M1859.51,1614.54c0-1.3,5.4-2.35,12.06-2.35s12.06,1,12.06,2.35-5.4,2.34-12.06,2.34S1859.51,1615.83,1859.51,1614.54Z"></path>
<rect class="cls-7" x="1863.37" y="1667.65" width="25.97" height="14.38" rx="4.55"></rect>
</g>
<polygon class="cls-6" points="1552.65 1175.78 1560.37 1164.11 1610.17 1239.41 1602.45 1251.07 1552.65 1175.78"></polygon>
<rect class="cls-25" x="1400.17" y="1308.68" width="6.21" height="344.66"></rect>
</g>
<path class="cls-23" d="M1210.52,1116.39c-11.75-3.4-146.33-37.88-151.4-41.21s-88.2-81-88.2-81L1018.53,969l74.42,73.3c5.08,2.13,100.4,38.38,100.4,38.38s29.13,11.88,31.66,11.39c2.15-.42,5.33,1.25,21.93-2.45,4.8-1.06,15.64-3,15.63-1s-6.5,7.7-3.32,12.38c.63.93,14.82,5.23,16,7.58.54.54-8.53,29.93-27.07,24.71C1243.59,1132,1210.52,1116.39,1210.52,1116.39Z"></path>
<path class="cls-19" d="M996.55,1029.94l54.54-35.71s-63.17-95.8-84.73-105.69c-14.85-6.81-33.33,3.46-40.57,28.65C917.92,944.53,996.55,1029.94,996.55,1029.94Z"></path>
</g>
<path class="cls-16" d="M2303.76,1444.17H1904a29.26,29.26,0,0,1,29.27-29.27h341.25a29.27,29.27,0,0,1,29.28,29.27Z"></path>
<polygon class="cls-16" points="2251.16 1699.16 1937.77 1437.98 1951.83 1421.09 2285.48 1699.16 2251.16 1699.16"></polygon>
<polygon class="cls-16" points="2002.77 1699.16 1977.51 1699.16 2233.09 1422.01 2249.11 1437.06 2002.77 1699.16"></polygon>
<g>
<path class="cls-10" d="M1941.12,1325.6v65.56a23,23,0,0,0,23,23h143.66a23,23,0,0,0,23-23V1325.6Z"></path>
<path class="cls-18" d="M2122.87,1397.49l7.85-6.18v-4.26l-10.56,8.33-11.28-8.81,11.24-8.86,10.6,8.28v-4.24l-7.9-6.17,7.9-6.22v-4.26l-10.61,8.37-11.28-8.81,11.23-8.86,10.66,8.32v-4.24l-7.95-6.21,7.95-6.27v-4.25l-10.67,8.41-11.28-8.81,11.24-8.86,10.71,8.36V1338l-8-6.25,7.83-6.16h-5.4l-5.14,4.05-5.19-4.05h-5.43l7.92,6.18-11.24,8.86-11.28-8.81,7.91-6.23h-5.4l-5.23,4.12-5.28-4.12h-5.43l8,6.25-11.24,8.85-11.28-8.8,8-6.3h-5.4l-5.31,4.18-5.37-4.18h-5.43l8.09,6.31-11.24,8.86-11.28-8.8,8.09-6.37h-5.4l-5.4,4.25-5.46-4.25h-5.43l8.19,6.38-11.24,8.86L2011,1332l8.17-6.44h-5.39l-5.49,4.32-5.54-4.32h-5.43l8.27,6.45-11.24,8.86-11.29-8.8,8.26-6.51h-5.39l-5.58,4.39-5.63-4.39h-5.43l8.36,6.52-11.24,8.86-11.28-8.81,8.34-6.57H1958l-5.67,4.46-5.71-4.46h-5.43l8.44,6.59-8.55,6.73v8.46l8.61,6.72-8.61,6.78v8.37l8.66,6.76-8.66,6.82v8.29l8.71,6.8-5.74,4.52a21.83,21.83,0,0,0,1.86,2.79l6.6-5.2,11.28,8.81-5.71,4.5a22,22,0,0,0,4.46.73l4-3.12,4.07,3.18H1976l-6.8-5.3,11.24-8.87,11.29,8.81-6.8,5.36h5.39l4.12-3.25,4.16,3.25h5.43l-6.89-5.37,11.24-8.86,11.29,8.8-6.89,5.43h5.4l4.2-3.31,4.24,3.31h5.43l-7-5.44,11.24-8.86,11.28,8.8-7,5.5h5.4l4.28-3.38,4.34,3.38h5.43l-7.06-5.51,11.24-8.86,11.28,8.81-7.06,5.56h5.4l4.37-3.45,4.42,3.45h5.43l-7.15-5.58,11.24-8.86,11.29,8.81-7.15,5.63h5.4l4.46-3.52,4.29,3.35a24,24,0,0,0,4.25-.92l-5.84-4.56,11.24-8.86,6.27,4.89a23.89,23.89,0,0,0,1.75-2.87Zm-5.46-21.89-11.24,8.86-11.29-8.81,11.24-8.86ZM1969.14,1365l11.24-8.86,11.28,8.81-11.24,8.86Zm8.58,10.94-11.24,8.86L1955.2,1376l11.24-8.86Zm16.65-8.88,11.29,8.81-11.24,8.86-11.29-8.8Zm2.7-2.12,11.25-8.86,11.28,8.8-11.24,8.86Zm25.24,2.06,11.28,8.8-11.24,8.86-11.28-8.8Zm2.7-2.13,11.24-8.86,11.29,8.8-11.25,8.86Zm25.24,2.06,11.28,8.8-11.24,8.86-11.28-8.8Zm2.7-2.13,11.24-8.86,11.28,8.8-11.24,8.86Zm25.24,2.06,11.28,8.81-11.24,8.85-11.29-8.8Zm2.7-2.13,11.24-8.86,11.28,8.81-11.24,8.86Zm25.18-19.85,11.28,8.81-11.24,8.86-11.28-8.81Zm-14-10.92,11.29,8.81-11.24,8.85-11.29-8.8Zm-13.94,11,11.28,8.8-11.24,8.87-11.28-8.81Zm-14-10.92,11.28,8.8-11.24,8.86-11.28-8.8Zm-13.95,11,11.29,8.8-11.24,8.86-11.29-8.8Zm-14-10.92,11.28,8.8-11.24,8.86L2025,1343Zm-13.94,11,11.28,8.8-11.24,8.86L2011,1354Zm-14-10.93,11.28,8.81-11.24,8.86L1997,1343Zm-13.94,11,11.28,8.8-11.24,8.86-11.28-8.81Zm-14-10.93,11.29,8.81-11.24,8.86-11.29-8.81Zm-13.94,11,11.28,8.81-11.24,8.86-11.28-8.81Zm-25.23-2.06,11.24-8.86,11.28,8.81-11.24,8.86Zm0,21.91,11.24-8.86,11.28,8.81-11.24,8.86Zm11.34,30.72-11.29-8.81,11.24-8.86,11.29,8.81Zm14,10.92-11.28-8.81,11.24-8.86,11.28,8.81Zm13.94-11-11.28-8.81,11.24-8.86,11.28,8.81Zm14,10.92-11.28-8.81,11.24-8.85,11.28,8.8Zm13.94-11-11.28-8.8,11.24-8.86,11.28,8.8Zm14,10.92-11.29-8.8,11.24-8.86,11.29,8.8Zm13.94-11-11.28-8.8,11.24-8.86,11.28,8.8Zm14,10.92-11.28-8.8,11.24-8.86,11.29,8.8Zm13.95-11-11.29-8.8,11.24-8.86,11.29,8.8Zm14,10.93-11.28-8.81,11.24-8.86,11.28,8.81Zm13.94-11-11.28-8.81,11.24-8.86,11.28,8.81Zm14,10.92-11.28-8.81,11.24-8.86,11.28,8.81Z"></path>
<g>
<rect class="cls-6" x="1927.48" y="1297.47" width="211.31" height="28.12" rx="13.35"></rect>
<path class="cls-16" d="M2125.45,1326.82H1940.83a14.59,14.59,0,0,1-14.57-14.57v-1.43a14.59,14.59,0,0,1,14.57-14.57h184.62a14.58,14.58,0,0,1,14.56,14.57v1.43A14.58,14.58,0,0,1,2125.45,1326.82Zm-184.62-28.12a12.13,12.13,0,0,0-12.13,12.12v1.43a12.13,12.13,0,0,0,12.13,12.12h184.62a12.13,12.13,0,0,0,12.12-12.12v-1.43a12.13,12.13,0,0,0-12.12-12.12Z"></path>
</g>
<path class="cls-10" d="M2100.18,1315l-.83.62a9.7,9.7,0,0,1-13.59-1.94l-47.56-63.43a3.35,3.35,0,0,1,.67-4.67l11-8.27a3.34,3.34,0,0,1,4.68.67l47.55,63.42A9.71,9.71,0,0,1,2100.18,1315Z"></path>
<path class="cls-10" d="M1967.23,1316.36l.83.62a9.72,9.72,0,0,0,13.6-1.94l47.55-63.42a3.34,3.34,0,0,0-.67-4.68l-11-8.27a3.34,3.34,0,0,0-4.67.67l-47.55,63.43A9.7,9.7,0,0,0,1967.23,1316.36Z"></path>
<g>
<circle class="cls-19" cx="1974" cy="1308.19" r="4.04"></circle>
<path class="cls-10" d="M1974,1312.44a4.25,4.25,0,1,1,4.25-4.25A4.24,4.24,0,0,1,1974,1312.44Zm0-8.07a3.83,3.83,0,1,0,3.83,3.82A3.83,3.83,0,0,0,1974,1304.37Z"></path>
</g>
<g>
<path class="cls-19" d="M2098.46,1308.19a4,4,0,1,1-4-4A4,4,0,0,1,2098.46,1308.19Z"></path>
<path class="cls-10" d="M2094.42,1312.44a4.25,4.25,0,1,1,4.24-4.25A4.25,4.25,0,0,1,2094.42,1312.44Zm0-8.07a3.83,3.83,0,1,0,3.83,3.82A3.83,3.83,0,0,0,2094.42,1304.37Z"></path>
</g>
<polygon class="cls-19" points="1994.83 1297.47 2038.29 1342.86 2073.59 1297.47 1994.83 1297.47"></polygon>
</g>
<path class="cls-12" d="M1363.69,577.17c-3.19,25.12,23,45.06,46.25,43.49,25.72-1.74,47.55-22.84,51.31-48.11,4.07-27.37-12.37-49.25-37.81-51.26-24.76-1.95-40.6,20.09-33.45,42.33,5.13,15.94,19.68,21.89,27,17.49,5.71-3.43,5.37-12.08-1.55-13.6a7.14,7.14,0,0,0-7.11,3.06c-6-2.4-11.82-13.43-7.9-25.34,5-15.2,24.22-16.07,36.16-9,15.19,9,17.58,28.47,12,44-5.85,16.26-21.83,29.07-39.22,30.31a36.46,36.46,0,0,1-38.61-33.33C1370.42,572.56,1364.26,572.67,1363.69,577.17Z"></path>
<polygon class="cls-4" points="898.42 821.91 886.72 827.08 876.34 809.18 858.31 814.62 848.35 802.49 842.21 807.54 855.53 823.75 872.62 818.6 883.42 837.22 901.02 829.45 898.42 821.91"></polygon>
<polygon class="cls-12" points="1104.36 637.5 1099.95 605.31 1078.9 610.27 1076.52 600.18 1108.67 592.61 1113.06 624.61 1137.73 618.36 1142.26 647.5 1168.49 644.57 1169.64 654.87 1133.54 658.91 1129.24 631.2 1104.36 637.5"></polygon>
</g>
</svg>