<svg class="svg__img svg__color home__img" viewBox="0 0 360 337" fill="none" xmlns="http://www.w3.org/2000/svg">
<path d="M304.82 0.5H91C88.8014 0.5 86.6928 1.37341 85.1381 2.92809C83.5834 4.48276 82.71 6.59136 82.71 8.79V8.79C82.71 9.87866 82.9244 10.9567 83.341 11.9624C83.7576 12.9682 84.3683 13.8821 85.1381 14.6519C85.9079 15.4217 86.8218 16.0323 87.8276 16.449C88.8333 16.8656 89.9113 17.08 91 17.08H304.8C311.323 17.0827 317.577 19.6756 322.188 24.2887C326.8 28.9018 329.39 35.1574 329.39 41.68V157.28C329.393 159.48 330.268 161.59 331.824 163.146C333.38 164.702 335.49 165.577 337.69 165.58V165.58C339.89 165.577 341.998 164.702 343.553 163.145C345.107 161.589 345.98 159.48 345.98 157.28V41.68C345.98 30.7618 341.644 20.2906 333.926 12.5684C326.207 4.84624 315.738 0.505303 304.82 0.5V0.5Z" ></path>
<path d="M89 261.89V302.45L36.94 261.45C34.7555 259.724 32.9908 257.525 31.7783 255.019C30.5659 252.513 29.9374 249.764 29.94 246.98V73.12C29.9374 70.9195 29.062 68.8099 27.5061 67.2539C25.9501 65.698 23.8405 64.8227 21.64 64.82C19.4404 64.8227 17.3319 65.6983 15.7775 67.2546C14.2231 68.8108 13.35 70.9204 13.35 73.12V247C13.3349 252.295 14.5287 257.524 16.8405 262.288C19.1523 267.052 22.521 271.225 26.69 274.49L105.6 336.67V268.22H219.82C222.02 268.22 224.129 267.347 225.685 265.793C227.242 264.238 228.117 262.13 228.12 259.93C228.117 257.73 227.242 255.622 225.685 254.067C224.129 252.513 222.02 251.64 219.82 251.64H99.23C96.515 251.645 93.913 252.728 91.9951 254.649C90.0772 256.571 89 259.175 89 261.89Z" ></path>
<path d="M54.66 182.18C49.99 187.98 47.74 195.42 47.74 204.59C47.74 213.93 49.9 221.37 54.4 226.91C59.5 233.31 67.12 236.6 77.24 236.6C83.441 236.751 89.5 234.732 94.37 230.89C99.47 226.82 102.67 221.2 104.06 214.02H94.89C93.67 218.86 91.5067 222.493 88.4 224.92C85.1288 227.263 81.1703 228.448 77.15 228.29C70.23 228.29 65.1267 226.127 61.84 221.8C58.72 217.74 57.17 212.03 57.17 204.59C57.17 197.41 58.72 191.7 61.93 187.59C65.3 183.01 70.32 180.76 76.93 180.76C81.43 180.76 85.06 181.71 88 183.7C90.94 185.69 92.93 188.81 94 192.96H103.17C102.475 187.107 99.5485 181.748 95 178C90.33 174.19 84.36 172.38 77.18 172.38C67.29 172.41 59.85 175.61 54.66 182.18Z" ></path>
<path d="M122.9 172.41H113.73V235.39H122.9V172.41Z" ></path>
<path d="M173.77 235.39V190.66H164.6V218C163.968 221.032 162.463 223.813 160.27 226C158.513 227.803 156.126 228.857 153.61 228.94C150.06 228.94 147.47 227.99 145.91 226.26C144.35 224.53 143.49 221.76 143.49 217.95V190.66H134.32V218.52C134.32 230.52 139.68 236.6 150.5 236.6C156.12 236.6 160.79 234.17 164.6 229.33V235.39H173.77Z" ></path>
<path d="M184.22 172.41V235.41H192.79V230C195.9 234.33 200.49 236.58 206.63 236.58C213.21 236.58 218.31 234.24 222.12 229.58C225.58 225.25 227.31 219.63 227.31 212.8C227.31 206.22 225.58 200.8 222.2 196.45C218.48 191.77 213.46 189.45 207.06 189.45C201.53 189.45 197.06 192.04 193.39 197.32V172.41H184.22ZM196.68 201C197.625 199.693 198.878 198.639 200.327 197.93C201.776 197.222 203.378 196.882 204.99 196.94C209.48 196.94 212.86 198.41 214.99 201.52C216.9 204.12 217.85 207.93 217.85 212.86C217.85 217.79 216.9 221.59 215.16 224.36C213 227.56 209.72 229.21 205.22 229.21C203.401 229.257 201.601 228.839 199.988 227.998C198.375 227.156 197.002 225.918 196 224.4C194.1 221.54 193.15 217.91 193.15 213.4V212.62C193.14 207.79 194.26 203.9 196.68 201Z" ></path>
<path d="M168.15 39.87C137.09 39.87 117.79 62.22 117.79 98.2C117.79 114.2 122.18 128.08 130.49 138.38C139.6 149.65 152.62 155.61 168.15 155.61C183.68 155.61 196.69 149.61 205.81 138.38C214.12 128.14 218.51 114.24 218.51 98.2C218.51 62.22 199.21 39.87 168.15 39.87ZM194.03 128.87C187.87 136.45 178.92 140.45 168.15 140.45C157.38 140.45 148.43 136.45 142.31 128.87C136.19 121.29 132.93 110.52 132.93 98.19C132.93 84.96 136.1 73.98 142.1 66.45C148.1 58.92 156.92 55 168.15 55C179.38 55 188.26 58.84 194.27 66.43C200.28 74.02 203.36 84.89 203.36 98.18C203.36 110.51 200.05 121.41 194 128.88L194.03 128.87Z" ></path>
<path d="M100.69 73.74H84.87V153.02H100.69V73.74Z" ></path>
<path d="M274.47 156C281.38 156 294.37 154.57 303.76 145C312.45 136.12 315.24 122.75 310.69 111.73C306.88 102.45 298.15 95.03 287.32 91.87C282.43 90.45 274.57 88.32 268.84 86.79C262.73 85.15 255.93 83 252.77 78.36C251.449 76.3887 250.648 74.1155 250.442 71.7517C250.236 69.3878 250.631 67.0102 251.59 64.84C253.9 59.84 258.73 56.24 265.18 54.76C273.9 52.76 283.95 54.85 290.18 59.97C293.429 62.6711 295.63 66.4251 296.4 70.58L296.89 73.26H312L311.55 69.59C310.458 61.265 306.266 53.6584 299.81 48.29C290 40.24 275.09 37 261.8 40C250.66 42.54 242.14 49.12 237.8 58.53C235.767 63.0959 234.927 68.103 235.357 73.0824C235.787 78.0617 237.474 82.8505 240.26 87C246.35 95.92 256.19 99.17 264.93 101.51C270.58 103.03 278.3 105.12 283.09 106.51C289.43 108.36 294.64 112.61 296.69 117.58C298.95 123.1 297.44 129.89 292.93 134.48C286.69 140.86 276.2 141.75 268.49 140.48C259.67 139.02 249.37 133.04 246.25 123L245.53 120.7H230.15L231.05 124.7C234.55 140.19 248.6 152.54 266.05 155.45C268.837 155.86 271.653 156.044 274.47 156V156Z" ></path>
<path d="M92.79 36.5C90.7307 36.498 88.717 37.1069 87.0038 38.2495C85.2906 39.3922 83.9547 41.0173 83.1653 42.9193C82.3758 44.8213 82.1683 46.9148 82.5688 48.9348C82.9693 50.9548 83.96 52.8106 85.4155 54.2674C86.871 55.7243 88.7258 56.7168 90.7454 57.1192C92.765 57.5217 94.8587 57.3162 96.7614 56.5285C98.6642 55.7409 100.291 54.4067 101.435 52.6945C102.579 50.9824 103.19 48.9693 103.19 46.91C103.187 44.1516 102.091 41.5069 100.142 39.5555C98.1921 37.6041 95.5484 36.5053 92.79 36.5V36.5Z" ></path>
<path d="M67 62.36V8.73002C67 6.5685 66.1413 4.49552 64.6129 2.96709C63.0845 1.43867 61.0115 0.580017 58.85 0.580017H8.85C6.68849 0.580017 4.6155 1.43867 3.08708 2.96709C1.55866 4.49552 0.700003 6.5685 0.700003 8.73002V44C0.698689 45.0711 0.908524 46.132 1.31751 47.122C1.7265 48.1119 2.32662 49.0115 3.08354 49.7694C3.84047 50.5273 4.73936 51.1285 5.72882 51.5387C6.71828 51.9489 7.77889 52.16 8.85 52.16H53.49C55.0593 52.1581 56.5709 52.7513 57.72 53.82L67 62.36Z"></path>
<path d="M314.86 228.17L300.52 241.46L294.65 246.9C294.204 247.318 293.644 247.597 293.042 247.7C292.439 247.804 291.819 247.729 291.258 247.485C290.697 247.24 290.221 246.836 289.887 246.324C289.553 245.811 289.377 245.212 289.38 244.6V195.78H254.17C252.764 195.779 251.372 196.055 250.072 196.592C248.773 197.129 247.592 197.917 246.598 198.91C245.603 199.904 244.814 201.084 244.275 202.383C243.737 203.682 243.46 205.074 243.46 206.48V257.43C243.459 258.837 243.735 260.23 244.273 261.53C244.81 262.83 245.599 264.011 246.594 265.006C247.589 266.001 248.77 266.79 250.07 267.327C251.37 267.865 252.763 268.141 254.17 268.14H326.05C327.619 268.138 329.131 268.731 330.28 269.8L345.91 284.28V228.17H314.86Z" ></path>
<path d="M314.7 221.54H345.91V206.48C345.907 203.641 344.778 200.92 342.77 198.913C340.761 196.907 338.039 195.78 335.2 195.78H296V236.6L310.46 223.2C311.612 222.129 313.127 221.536 314.7 221.54V221.54Z" ></path>
<path d="M350.94 221.54H314.7C313.131 221.538 311.619 222.131 310.47 223.2L298.57 234.2C298.354 234.403 298.083 234.538 297.79 234.589C297.498 234.64 297.197 234.604 296.925 234.486C296.653 234.368 296.422 234.173 296.259 233.925C296.096 233.677 296.01 233.387 296.01 233.09V188.49C296.01 187.424 296.22 186.369 296.628 185.384C297.037 184.4 297.635 183.505 298.389 182.752C299.143 181.999 300.038 181.401 301.023 180.994C302.008 180.587 303.064 180.379 304.13 180.38H350.94C352.006 180.379 353.062 180.587 354.047 180.994C355.032 181.401 355.927 181.999 356.681 182.752C357.435 183.505 358.034 184.4 358.442 185.384C358.85 186.369 359.06 187.424 359.06 188.49V213.4C359.064 214.468 358.857 215.527 358.45 216.515C358.044 217.503 357.446 218.401 356.692 219.158C355.937 219.914 355.041 220.514 354.054 220.923C353.067 221.332 352.008 221.541 350.94 221.54Z" ></path>
</svg>